<svg width="1526" height="720" viewBox="0 0 1526 720" fill="none" xmlns="http://www.w3.org/2000/svg">
<g clip-path="url(#clip0_40_2)">
<rect width="1526" height="720" fill="#F8F8F8"/>
<g filter="url(#filter0_d_40_2)">
<rect x="14" y="16" width="332" height="666" rx="20" fill="#D5CEA3"/>
</g>
<path d="M86.72 271V256.6H88.36V271H86.72ZM91.6781 271V260.8H93.1781V263.2H93.2781V271H91.6781ZM98.5581 271V264.24C98.5581 263.467 98.3848 262.9 98.0381 262.54C97.6915 262.18 97.1915 262 96.5381 262C95.9248 262 95.3715 262.147 94.8781 262.44C94.3848 262.733 93.9915 263.14 93.6981 263.66C93.4181 264.18 93.2781 264.787 93.2781 265.48L93.0181 263.06C93.3648 262.3 93.8848 261.7 94.5781 261.26C95.2715 260.82 96.0248 260.6 96.8381 260.6C97.8248 260.6 98.6248 260.893 99.2381 261.48C99.8515 262.053 100.158 262.833 100.158 263.82V271H98.5581ZM105.438 271V264.24C105.438 263.467 105.265 262.9 104.918 262.54C104.571 262.18 104.071 262 103.418 262C102.805 262 102.251 262.147 101.758 262.44C101.265 262.733 100.871 263.14 100.578 263.66C100.298 264.18 100.158 264.787 100.158 265.48L99.7581 263.06C100.105 262.3 100.638 261.7 101.358 261.26C102.078 260.82 102.851 260.6 103.678 260.6C104.665 260.6 105.471 260.893 106.098 261.48C106.725 262.053 107.038 262.833 107.038 263.82V271H105.438ZM116.317 271C116.264 270.773 116.224 270.513 116.197 270.22C116.184 269.927 116.177 269.553 116.177 269.1H116.077V264.22C116.077 263.447 115.897 262.88 115.537 262.52C115.19 262.147 114.624 261.96 113.837 261.96C113.064 261.96 112.444 262.12 111.977 262.44C111.524 262.747 111.27 263.187 111.217 263.76H109.677C109.744 262.773 110.157 262 110.917 261.44C111.677 260.88 112.67 260.6 113.897 260.6C115.164 260.6 116.104 260.9 116.717 261.5C117.33 262.1 117.637 263 117.637 264.2V269.1C117.637 269.393 117.657 269.7 117.697 270.02C117.737 270.327 117.79 270.653 117.857 271H116.317ZM112.817 271.2C111.764 271.2 110.924 270.947 110.297 270.44C109.684 269.92 109.377 269.213 109.377 268.32C109.377 267.427 109.684 266.733 110.297 266.24C110.91 265.747 111.804 265.4 112.977 265.2L116.537 264.6V265.92L113.217 266.44C112.47 266.56 111.904 266.76 111.517 267.04C111.13 267.32 110.937 267.727 110.937 268.26C110.937 268.78 111.11 269.173 111.457 269.44C111.817 269.707 112.344 269.84 113.037 269.84C113.93 269.84 114.657 269.64 115.217 269.24C115.79 268.827 116.077 268.293 116.077 267.64L116.337 269.06C116.124 269.74 115.704 270.267 115.077 270.64C114.464 271.013 113.71 271.2 112.817 271.2ZM124.781 275.3C123.568 275.3 122.554 275.013 121.741 274.44C120.941 273.88 120.454 273.133 120.281 272.2H121.801C121.948 272.733 122.274 273.153 122.781 273.46C123.301 273.78 124.001 273.94 124.881 273.94C125.921 273.94 126.708 273.653 127.241 273.08C127.774 272.52 128.041 271.693 128.041 270.6V268.42L128.241 268.46C128.014 269.233 127.561 269.853 126.881 270.32C126.201 270.773 125.394 271 124.461 271C123.568 271 122.781 270.787 122.101 270.36C121.421 269.92 120.894 269.313 120.521 268.54C120.148 267.767 119.961 266.867 119.961 265.84C119.961 264.8 120.154 263.887 120.541 263.1C120.928 262.313 121.468 261.707 122.161 261.28C122.868 260.84 123.688 260.62 124.621 260.62C125.581 260.62 126.381 260.853 127.021 261.32C127.674 261.787 128.108 262.453 128.321 263.32L128.141 263.34V260.8H129.641V270.6C129.641 272.053 129.208 273.2 128.341 274.04C127.474 274.88 126.288 275.3 124.781 275.3ZM124.861 269.62C125.861 269.62 126.654 269.273 127.241 268.58C127.828 267.887 128.121 266.947 128.121 265.76C128.121 264.6 127.828 263.687 127.241 263.02C126.654 262.34 125.861 262 124.861 262C123.848 262 123.048 262.34 122.461 263.02C121.888 263.7 121.601 264.633 121.601 265.82C121.601 266.98 121.894 267.907 122.481 268.6C123.068 269.28 123.861 269.62 124.861 269.62ZM137.03 271.2C136.057 271.2 135.197 270.973 134.45 270.52C133.703 270.053 133.117 269.42 132.69 268.62C132.263 267.82 132.05 266.9 132.05 265.86C132.05 264.82 132.257 263.907 132.67 263.12C133.097 262.32 133.69 261.7 134.45 261.26C135.21 260.82 136.083 260.6 137.07 260.6C138.017 260.6 138.837 260.807 139.53 261.22C140.237 261.633 140.777 262.213 141.15 262.96C141.537 263.707 141.73 264.587 141.73 265.6C141.73 265.733 141.723 265.86 141.71 265.98C141.71 266.1 141.697 266.233 141.67 266.38H133.25V265.04H140.69L140.17 265.78C140.17 264.553 139.897 263.613 139.35 262.96C138.817 262.293 138.057 261.96 137.07 261.96C136.057 261.96 135.237 262.313 134.61 263.02C133.997 263.713 133.69 264.653 133.69 265.84C133.69 267.053 133.997 268.027 134.61 268.76C135.237 269.48 136.07 269.84 137.11 269.84C137.763 269.84 138.337 269.7 138.83 269.42C139.323 269.127 139.683 268.713 139.91 268.18H141.43C141.097 269.113 140.537 269.853 139.75 270.4C138.977 270.933 138.07 271.2 137.03 271.2ZM154.743 271.2C153.276 271.2 152.003 270.9 150.923 270.3C149.843 269.7 149.01 268.86 148.423 267.78C147.836 266.687 147.543 265.4 147.543 263.92C147.543 262.44 147.83 261.14 148.403 260.02C148.99 258.887 149.796 258 150.823 257.36C151.863 256.72 153.056 256.4 154.403 256.4C155.456 256.4 156.41 256.6 157.263 257C158.13 257.4 158.836 257.953 159.383 258.66C159.943 259.367 160.283 260.187 160.403 261.12H158.763C158.63 260.133 158.17 259.347 157.383 258.76C156.61 258.173 155.636 257.88 154.463 257.88C153.41 257.88 152.49 258.133 151.703 258.64C150.916 259.133 150.303 259.827 149.863 260.72C149.436 261.613 149.223 262.667 149.223 263.88C149.223 265.093 149.443 266.14 149.883 267.02C150.336 267.887 150.983 268.553 151.823 269.02C152.676 269.487 153.696 269.72 154.883 269.72C155.696 269.72 156.423 269.607 157.063 269.38C157.703 269.14 158.283 268.773 158.803 268.28L160.443 268.88C159.71 269.653 158.863 270.233 157.903 270.62C156.956 271.007 155.903 271.2 154.743 271.2ZM158.803 268.88V264.22L159.423 264.84H154.863V263.4H160.443V268.88H158.803ZM167.616 271.2C166.643 271.2 165.783 270.973 165.036 270.52C164.289 270.053 163.703 269.42 163.276 268.62C162.849 267.82 162.636 266.9 162.636 265.86C162.636 264.82 162.843 263.907 163.256 263.12C163.683 262.32 164.276 261.7 165.036 261.26C165.796 260.82 166.669 260.6 167.656 260.6C168.603 260.6 169.423 260.807 170.116 261.22C170.823 261.633 171.363 262.213 171.736 262.96C172.123 263.707 172.316 264.587 172.316 265.6C172.316 265.733 172.309 265.86 172.296 265.98C172.296 266.1 172.283 266.233 172.256 266.38H163.836V265.04H171.276L170.756 265.78C170.756 264.553 170.483 263.613 169.936 262.96C169.403 262.293 168.643 261.96 167.656 261.96C166.643 261.96 165.823 262.313 165.196 263.02C164.583 263.713 164.276 264.653 164.276 265.84C164.276 267.053 164.583 268.027 165.196 268.76C165.823 269.48 166.656 269.84 167.696 269.84C168.349 269.84 168.923 269.7 169.416 269.42C169.909 269.127 170.269 268.713 170.496 268.18H172.016C171.683 269.113 171.123 269.853 170.336 270.4C169.563 270.933 168.656 271.2 167.616 271.2ZM174.725 271V260.8H176.225V263.2H176.325V271H174.725ZM182.025 271V264.32C182.025 263.547 181.832 262.967 181.445 262.58C181.058 262.193 180.485 262 179.725 262C179.058 262 178.465 262.147 177.945 262.44C177.438 262.733 177.038 263.14 176.745 263.66C176.465 264.18 176.325 264.787 176.325 265.48L176.065 263.06C176.412 262.3 176.938 261.7 177.645 261.26C178.365 260.82 179.178 260.6 180.085 260.6C181.152 260.6 182.005 260.907 182.645 261.52C183.298 262.12 183.625 262.913 183.625 263.9V271H182.025ZM190.878 271.2C189.904 271.2 189.044 270.973 188.298 270.52C187.551 270.053 186.964 269.42 186.538 268.62C186.111 267.82 185.898 266.9 185.898 265.86C185.898 264.82 186.104 263.907 186.518 263.12C186.944 262.32 187.538 261.7 188.298 261.26C189.058 260.82 189.931 260.6 190.918 260.6C191.864 260.6 192.684 260.807 193.378 261.22C194.084 261.633 194.624 262.213 194.998 262.96C195.384 263.707 195.578 264.587 195.578 265.6C195.578 265.733 195.571 265.86 195.558 265.98C195.558 266.1 195.544 266.233 195.518 266.38H187.098V265.04H194.538L194.018 265.78C194.018 264.553 193.744 263.613 193.198 262.96C192.664 262.293 191.904 261.96 190.918 261.96C189.904 261.96 189.084 262.313 188.458 263.02C187.844 263.713 187.538 264.653 187.538 265.84C187.538 267.053 187.844 268.027 188.458 268.76C189.084 269.48 189.918 269.84 190.958 269.84C191.611 269.84 192.184 269.7 192.678 269.42C193.171 269.127 193.531 268.713 193.758 268.18H195.278C194.944 269.113 194.384 269.853 193.598 270.4C192.824 270.933 191.918 271.2 190.878 271.2ZM197.987 271V260.8H199.487V263.4H199.587V271H197.987ZM199.587 265.68L199.327 263.26C199.567 262.393 199.993 261.733 200.607 261.28C201.22 260.827 201.927 260.6 202.727 260.6C203.06 260.6 203.287 260.627 203.407 260.68V262.22C203.34 262.193 203.247 262.18 203.127 262.18C203.007 262.167 202.86 262.16 202.687 262.16C201.673 262.16 200.9 262.467 200.367 263.08C199.847 263.68 199.587 264.547 199.587 265.68ZM211.454 271C211.4 270.773 211.36 270.513 211.334 270.22C211.32 269.927 211.314 269.553 211.314 269.1H211.214V264.22C211.214 263.447 211.034 262.88 210.674 262.52C210.327 262.147 209.76 261.96 208.974 261.96C208.2 261.96 207.58 262.12 207.114 262.44C206.66 262.747 206.407 263.187 206.354 263.76H204.814C204.88 262.773 205.294 262 206.054 261.44C206.814 260.88 207.807 260.6 209.034 260.6C210.3 260.6 211.24 260.9 211.854 261.5C212.467 262.1 212.774 263 212.774 264.2V269.1C212.774 269.393 212.794 269.7 212.834 270.02C212.874 270.327 212.927 270.653 212.994 271H211.454ZM207.954 271.2C206.9 271.2 206.06 270.947 205.434 270.44C204.82 269.92 204.514 269.213 204.514 268.32C204.514 267.427 204.82 266.733 205.434 266.24C206.047 265.747 206.94 265.4 208.114 265.2L211.674 264.6V265.92L208.354 266.44C207.607 266.56 207.04 266.76 206.654 267.04C206.267 267.32 206.074 267.727 206.074 268.26C206.074 268.78 206.247 269.173 206.594 269.44C206.954 269.707 207.48 269.84 208.174 269.84C209.067 269.84 209.794 269.64 210.354 269.24C210.927 268.827 211.214 268.293 211.214 267.64L211.474 269.06C211.26 269.74 210.84 270.267 210.214 270.64C209.6 271.013 208.847 271.2 207.954 271.2ZM219.664 271.18C218.531 271.18 217.704 270.927 217.184 270.42C216.678 269.9 216.424 269.153 216.424 268.18V258.42L218.024 257.82V268.16C218.024 268.733 218.171 269.153 218.464 269.42C218.758 269.687 219.238 269.82 219.904 269.82C220.171 269.82 220.398 269.807 220.584 269.78C220.784 269.74 220.944 269.693 221.064 269.64V271C220.931 271.053 220.738 271.093 220.484 271.12C220.244 271.16 219.971 271.18 219.664 271.18ZM214.324 262.16V260.8H221.064V262.16H214.324ZM227.129 271.2C226.129 271.2 225.249 270.967 224.489 270.5C223.729 270.033 223.136 269.4 222.709 268.6C222.296 267.787 222.089 266.873 222.089 265.86C222.089 264.833 222.302 263.927 222.729 263.14C223.156 262.353 223.742 261.733 224.489 261.28C225.249 260.827 226.129 260.6 227.129 260.6C228.142 260.6 229.022 260.827 229.769 261.28C230.529 261.733 231.116 262.353 231.529 263.14C231.956 263.927 232.169 264.833 232.169 265.86C232.169 266.873 231.956 267.787 231.529 268.6C231.116 269.4 230.529 270.033 229.769 270.5C229.022 270.967 228.142 271.2 227.129 271.2ZM227.129 269.84C227.822 269.84 228.422 269.673 228.929 269.34C229.436 268.993 229.829 268.52 230.109 267.92C230.389 267.32 230.529 266.627 230.529 265.84C230.529 264.667 230.216 263.727 229.589 263.02C228.976 262.313 228.156 261.96 227.129 261.96C226.116 261.96 225.296 262.313 224.669 263.02C224.042 263.727 223.729 264.667 223.729 265.84C223.729 266.627 223.869 267.32 224.149 267.92C224.429 268.52 224.822 268.993 225.329 269.34C225.849 269.673 226.449 269.84 227.129 269.84ZM234.569 271V260.8H236.069V263.4H236.169V271H234.569ZM236.169 265.68L235.909 263.26C236.149 262.393 236.575 261.733 237.189 261.28C237.802 260.827 238.509 260.6 239.309 260.6C239.642 260.6 239.869 260.627 239.989 260.68V262.22C239.922 262.193 239.829 262.18 239.709 262.18C239.589 262.167 239.442 262.16 239.269 262.16C238.255 262.16 237.482 262.467 236.949 263.08C236.429 263.68 236.169 264.547 236.169 265.68Z" fill="#1D2648"/>
<path d="M18 151.572L383.001 151.572" stroke="#DDDDDD"/>
<path d="M121.023 107V83.7273H136.705V87.7841H125.943V93.3295H135.898V97.3864H125.943V102.943H136.75V107H121.023ZM151.401 93.4432V97.2841H140.787V93.4432H151.401ZM155.616 107V83.7273H171.026V87.7841H160.537V93.3295H170.003V97.3864H160.537V107H155.616ZM175.44 107H170.168L178.202 83.7273H184.543L192.565 107H187.293L181.463 89.0455H181.281L175.44 107ZM175.111 97.8523H187.565V101.693H175.111V97.8523ZM207.46 90.4205C207.369 89.5038 206.979 88.7917 206.29 88.2841C205.6 87.7765 204.665 87.5227 203.483 87.5227C202.68 87.5227 202.002 87.6364 201.449 87.8636C200.896 88.0833 200.472 88.3902 200.176 88.7841C199.888 89.178 199.744 89.625 199.744 90.125C199.729 90.5417 199.816 90.9053 200.006 91.2159C200.203 91.5265 200.472 91.7955 200.812 92.0227C201.153 92.2424 201.547 92.4356 201.994 92.6023C202.441 92.7614 202.919 92.8977 203.426 93.0114L205.517 93.5114C206.532 93.7386 207.464 94.0417 208.312 94.4205C209.161 94.7992 209.896 95.2652 210.517 95.8182C211.138 96.3712 211.619 97.0227 211.96 97.7727C212.309 98.5227 212.487 99.3826 212.494 100.352C212.487 101.777 212.123 103.011 211.403 104.057C210.691 105.095 209.661 105.902 208.312 106.477C206.972 107.045 205.354 107.33 203.46 107.33C201.581 107.33 199.945 107.042 198.551 106.466C197.165 105.89 196.081 105.038 195.301 103.909C194.528 102.773 194.123 101.367 194.085 99.6932H198.847C198.9 100.473 199.123 101.125 199.517 101.648C199.919 102.163 200.453 102.553 201.119 102.818C201.794 103.076 202.555 103.205 203.403 103.205C204.237 103.205 204.96 103.083 205.574 102.841C206.195 102.598 206.676 102.261 207.017 101.83C207.358 101.398 207.528 100.902 207.528 100.341C207.528 99.8182 207.373 99.3788 207.062 99.0227C206.759 98.6667 206.313 98.3636 205.722 98.1136C205.138 97.8636 204.422 97.6364 203.574 97.4318L201.04 96.7955C199.078 96.3182 197.528 95.572 196.392 94.5568C195.256 93.5417 194.691 92.1742 194.699 90.4545C194.691 89.0455 195.066 87.8144 195.824 86.7614C196.589 85.7083 197.638 84.8864 198.972 84.2955C200.305 83.7045 201.82 83.4091 203.517 83.4091C205.244 83.4091 206.752 83.7045 208.04 84.2955C209.335 84.8864 210.343 85.7083 211.062 86.7614C211.782 87.8144 212.153 89.0341 212.176 90.4205H207.46ZM214.918 87.7841V83.7273H234.031V87.7841H226.906V107H222.043V87.7841H214.918Z" fill="#1A120B"/>
<path d="M251.773 107H248.818L257.364 83.7273H260.273L268.818 107H265.864L258.909 87.4091H258.727L251.773 107ZM252.864 97.9091H264.773V100.409H252.864V97.9091ZM275.261 83.7273V107H272.443V83.7273H275.261Z" fill="#1A120B"/>
<g clip-path="url(#clip1_40_2)">
<path fill-rule="evenodd" clip-rule="evenodd" d="M962.1 150.531C962.385 140.891 956.676 132.196 948.013 129.078C939.349 125.96 929.749 129.144 924.324 136.934L683.865 482.256C679.266 488.86 678.516 497.592 681.917 504.932C685.318 512.272 692.311 517.012 700.077 517.242L825.55 520.957L819.687 719.032C819.401 728.671 825.111 737.365 833.774 740.485C842.437 743.601 852.038 740.418 857.463 732.626L1097.92 387.306C1102.52 380.702 1103.27 371.97 1099.87 364.63C1096.47 357.29 1089.48 352.55 1081.71 352.32L956.236 348.605L962.1 150.531Z" fill="#D5CEA3" fill-opacity="0.19"/>
</g>
<path d="M92.82 207.2C91.8333 207.2 90.92 207.02 90.08 206.66C89.2533 206.287 88.5333 205.773 87.92 205.12C87.3067 204.453 86.8333 203.673 86.5 202.78C86.1667 201.873 86 200.88 86 199.8C86 198.72 86.1667 197.733 86.5 196.84C86.8333 195.933 87.3 195.153 87.9 194.5C88.5133 193.833 89.2333 193.32 90.06 192.96C90.9 192.587 91.8133 192.4 92.8 192.4C93.88 192.4 94.8467 192.62 95.7 193.06C96.5667 193.5 97.2733 194.12 97.82 194.92C98.38 195.72 98.7267 196.653 98.86 197.72H97.22C97.06 196.533 96.5867 195.6 95.8 194.92C95.0267 194.227 94.0333 193.88 92.82 193.88C91.7933 193.88 90.8933 194.133 90.12 194.64C89.3467 195.133 88.7467 195.827 88.32 196.72C87.8933 197.6 87.68 198.627 87.68 199.8C87.68 200.973 87.8933 202.007 88.32 202.9C88.7467 203.78 89.3467 204.473 90.12 204.98C90.8933 205.473 91.7867 205.72 92.8 205.72C94.04 205.72 95.0533 205.373 95.84 204.68C96.64 203.987 97.1133 203.053 97.26 201.88H98.9C98.7667 202.947 98.42 203.88 97.86 204.68C97.3133 205.48 96.6067 206.1 95.74 206.54C94.8867 206.98 93.9133 207.2 92.82 207.2ZM101.424 207V192.6H103.024V207H101.424ZM108.724 207V200.32C108.724 199.547 108.531 198.967 108.144 198.58C107.758 198.193 107.184 198 106.424 198C105.758 198 105.164 198.147 104.644 198.44C104.138 198.733 103.738 199.14 103.444 199.66C103.164 200.18 103.024 200.787 103.024 201.48L102.764 199.06C103.111 198.3 103.638 197.7 104.344 197.26C105.064 196.82 105.878 196.6 106.784 196.6C107.851 196.6 108.704 196.907 109.344 197.52C109.998 198.12 110.324 198.913 110.324 199.9V207H108.724ZM119.598 207C119.545 206.773 119.505 206.513 119.478 206.22C119.465 205.927 119.458 205.553 119.458 205.1H119.358V200.22C119.358 199.447 119.178 198.88 118.818 198.52C118.472 198.147 117.905 197.96 117.118 197.96C116.345 197.96 115.725 198.12 115.258 198.44C114.805 198.747 114.552 199.187 114.498 199.76H112.958C113.025 198.773 113.438 198 114.198 197.44C114.958 196.88 115.952 196.6 117.178 196.6C118.445 196.6 119.385 196.9 119.998 197.5C120.612 198.1 120.918 199 120.918 200.2V205.1C120.918 205.393 120.938 205.7 120.978 206.02C121.018 206.327 121.072 206.653 121.138 207H119.598ZM116.098 207.2C115.045 207.2 114.205 206.947 113.578 206.44C112.965 205.92 112.658 205.213 112.658 204.32C112.658 203.427 112.965 202.733 113.578 202.24C114.192 201.747 115.085 201.4 116.258 201.2L119.818 200.6V201.92L116.498 202.44C115.752 202.56 115.185 202.76 114.798 203.04C114.412 203.32 114.218 203.727 114.218 204.26C114.218 204.78 114.392 205.173 114.738 205.44C115.098 205.707 115.625 205.84 116.318 205.84C117.212 205.84 117.938 205.64 118.498 205.24C119.072 204.827 119.358 204.293 119.358 203.64L119.618 205.06C119.405 205.74 118.985 206.267 118.358 206.64C117.745 207.013 116.992 207.2 116.098 207.2ZM127.809 207.18C126.676 207.18 125.849 206.927 125.329 206.42C124.822 205.9 124.569 205.153 124.569 204.18V194.42L126.169 193.82V204.16C126.169 204.733 126.316 205.153 126.609 205.42C126.902 205.687 127.382 205.82 128.049 205.82C128.316 205.82 128.542 205.807 128.729 205.78C128.929 205.74 129.089 205.693 129.209 205.64V207C129.076 207.053 128.882 207.093 128.629 207.12C128.389 207.16 128.116 207.18 127.809 207.18ZM122.469 198.16V196.8H129.209V198.16H122.469ZM134.392 207L139.952 192.6H141.392L135.972 207H134.392ZM145.832 207L140.412 192.6H141.952L147.512 207H145.832ZM137.152 201.18H144.672V202.62H137.152V201.18ZM152.892 207.2C151.639 207.2 150.639 206.913 149.892 206.34C149.145 205.753 148.719 204.927 148.612 203.86H150.152C150.245 204.513 150.532 205.013 151.012 205.36C151.492 205.707 152.132 205.88 152.932 205.88C153.639 205.88 154.192 205.747 154.592 205.48C154.992 205.213 155.192 204.833 155.192 204.34C155.192 203.993 155.079 203.693 154.852 203.44C154.625 203.173 154.172 202.953 153.492 202.78L151.852 202.36C150.919 202.12 150.219 201.753 149.752 201.26C149.285 200.753 149.052 200.153 149.052 199.46C149.052 198.58 149.379 197.887 150.032 197.38C150.685 196.86 151.572 196.6 152.692 196.6C153.799 196.6 154.699 196.867 155.392 197.4C156.085 197.933 156.479 198.673 156.572 199.62H155.032C154.939 199.073 154.685 198.653 154.272 198.36C153.859 198.067 153.312 197.92 152.632 197.92C151.979 197.92 151.472 198.047 151.112 198.3C150.752 198.54 150.572 198.887 150.572 199.34C150.572 199.687 150.699 199.987 150.952 200.24C151.219 200.493 151.659 200.707 152.272 200.88L153.872 201.32C154.819 201.573 155.532 201.96 156.012 202.48C156.492 203 156.732 203.627 156.732 204.36C156.732 205.253 156.392 205.953 155.712 206.46C155.032 206.953 154.092 207.2 152.892 207.2ZM162.54 207.2C161.287 207.2 160.287 206.913 159.54 206.34C158.794 205.753 158.367 204.927 158.26 203.86H159.8C159.894 204.513 160.18 205.013 160.66 205.36C161.14 205.707 161.78 205.88 162.58 205.88C163.287 205.88 163.84 205.747 164.24 205.48C164.64 205.213 164.84 204.833 164.84 204.34C164.84 203.993 164.727 203.693 164.5 203.44C164.274 203.173 163.82 202.953 163.14 202.78L161.5 202.36C160.567 202.12 159.867 201.753 159.4 201.26C158.934 200.753 158.7 200.153 158.7 199.46C158.7 198.58 159.027 197.887 159.68 197.38C160.334 196.86 161.22 196.6 162.34 196.6C163.447 196.6 164.347 196.867 165.04 197.4C165.734 197.933 166.127 198.673 166.22 199.62H164.68C164.587 199.073 164.334 198.653 163.92 198.36C163.507 198.067 162.96 197.92 162.28 197.92C161.627 197.92 161.12 198.047 160.76 198.3C160.4 198.54 160.22 198.887 160.22 199.34C160.22 199.687 160.347 199.987 160.6 200.24C160.867 200.493 161.307 200.707 161.92 200.88L163.52 201.32C164.467 201.573 165.18 201.96 165.66 202.48C166.14 203 166.38 203.627 166.38 204.36C166.38 205.253 166.04 205.953 165.36 206.46C164.68 206.953 163.74 207.2 162.54 207.2ZM168.69 207V196.8H170.29V207H168.69ZM168.57 194.48V192.6H170.41V194.48H168.57ZM176.955 207.2C175.701 207.2 174.701 206.913 173.955 206.34C173.208 205.753 172.781 204.927 172.675 203.86H174.215C174.308 204.513 174.595 205.013 175.075 205.36C175.555 205.707 176.195 205.88 176.995 205.88C177.701 205.88 178.255 205.747 178.655 205.48C179.055 205.213 179.255 204.833 179.255 204.34C179.255 203.993 179.141 203.693 178.915 203.44C178.688 203.173 178.235 202.953 177.555 202.78L175.915 202.36C174.981 202.12 174.281 201.753 173.815 201.26C173.348 200.753 173.115 200.153 173.115 199.46C173.115 198.58 173.441 197.887 174.095 197.38C174.748 196.86 175.635 196.6 176.755 196.6C177.861 196.6 178.761 196.867 179.455 197.4C180.148 197.933 180.541 198.673 180.635 199.62H179.095C179.001 199.073 178.748 198.653 178.335 198.36C177.921 198.067 177.375 197.92 176.695 197.92C176.041 197.92 175.535 198.047 175.175 198.3C174.815 198.54 174.635 198.887 174.635 199.34C174.635 199.687 174.761 199.987 175.015 200.24C175.281 200.493 175.721 200.707 176.335 200.88L177.935 201.32C178.881 201.573 179.595 201.96 180.075 202.48C180.555 203 180.795 203.627 180.795 204.36C180.795 205.253 180.455 205.953 179.775 206.46C179.095 206.953 178.155 207.2 176.955 207.2ZM187.028 207.18C185.894 207.18 185.068 206.927 184.548 206.42C184.041 205.9 183.788 205.153 183.788 204.18V194.42L185.388 193.82V204.16C185.388 204.733 185.534 205.153 185.828 205.42C186.121 205.687 186.601 205.82 187.268 205.82C187.534 205.82 187.761 205.807 187.948 205.78C188.148 205.74 188.308 205.693 188.428 205.64V207C188.294 207.053 188.101 207.093 187.848 207.12C187.608 207.16 187.334 207.18 187.028 207.18ZM181.688 198.16V196.8H188.428V198.16H181.688ZM196.747 207C196.693 206.773 196.653 206.513 196.627 206.22C196.613 205.927 196.607 205.553 196.607 205.1H196.507V200.22C196.507 199.447 196.327 198.88 195.967 198.52C195.62 198.147 195.053 197.96 194.267 197.96C193.493 197.96 192.873 198.12 192.407 198.44C191.953 198.747 191.7 199.187 191.647 199.76H190.107C190.173 198.773 190.587 198 191.347 197.44C192.107 196.88 193.1 196.6 194.327 196.6C195.593 196.6 196.533 196.9 197.147 197.5C197.76 198.1 198.067 199 198.067 200.2V205.1C198.067 205.393 198.087 205.7 198.127 206.02C198.167 206.327 198.22 206.653 198.287 207H196.747ZM193.247 207.2C192.193 207.2 191.353 206.947 190.727 206.44C190.113 205.92 189.807 205.213 189.807 204.32C189.807 203.427 190.113 202.733 190.727 202.24C191.34 201.747 192.233 201.4 193.407 201.2L196.967 200.6V201.92L193.647 202.44C192.9 202.56 192.333 202.76 191.947 203.04C191.56 203.32 191.367 203.727 191.367 204.26C191.367 204.78 191.54 205.173 191.887 205.44C192.247 205.707 192.773 205.84 193.467 205.84C194.36 205.84 195.087 205.64 195.647 205.24C196.22 204.827 196.507 204.293 196.507 203.64L196.767 205.06C196.553 205.74 196.133 206.267 195.507 206.64C194.893 207.013 194.14 207.2 193.247 207.2ZM201.151 207V196.8H202.651V199.2H202.751V207H201.151ZM208.451 207V200.32C208.451 199.547 208.257 198.967 207.871 198.58C207.484 198.193 206.911 198 206.151 198C205.484 198 204.891 198.147 204.371 198.44C203.864 198.733 203.464 199.14 203.171 199.66C202.891 200.18 202.751 200.787 202.751 201.48L202.491 199.06C202.837 198.3 203.364 197.7 204.071 197.26C204.791 196.82 205.604 196.6 206.511 196.6C207.577 196.6 208.431 196.907 209.071 197.52C209.724 198.12 210.051 198.913 210.051 199.9V207H208.451ZM216.93 207.18C215.797 207.18 214.97 206.927 214.45 206.42C213.943 205.9 213.69 205.153 213.69 204.18V194.42L215.29 193.82V204.16C215.29 204.733 215.437 205.153 215.73 205.42C216.023 205.687 216.503 205.82 217.17 205.82C217.437 205.82 217.663 205.807 217.85 205.78C218.05 205.74 218.21 205.693 218.33 205.64V207C218.197 207.053 218.003 207.093 217.75 207.12C217.51 207.16 217.237 207.18 216.93 207.18ZM211.59 198.16V196.8H218.33V198.16H211.59Z" fill="#1D2648"/>
<path d="M419.72 71V56.6H425.44C426.467 56.6 427.34 56.7667 428.06 57.1C428.78 57.4333 429.327 57.9133 429.7 58.54C430.087 59.1667 430.28 59.92 430.28 60.8C430.28 61.68 430.087 62.44 429.7 63.08C429.327 63.7067 428.78 64.1933 428.06 64.54C427.34 64.8867 426.467 65.06 425.44 65.06H420.92V63.62H425.38C426.447 63.62 427.253 63.38 427.8 62.9C428.36 62.4067 428.64 61.7067 428.64 60.8C428.64 59.8933 428.367 59.2067 427.82 58.74C427.273 58.2733 426.46 58.04 425.38 58.04H421.36V71H419.72ZM438.419 71C438.365 70.7733 438.325 70.5133 438.299 70.22C438.285 69.9267 438.279 69.5533 438.279 69.1H438.179V64.22C438.179 63.4467 437.999 62.88 437.639 62.52C437.292 62.1467 436.725 61.96 435.939 61.96C435.165 61.96 434.545 62.12 434.079 62.44C433.625 62.7467 433.372 63.1867 433.319 63.76H431.779C431.845 62.7733 432.259 62 433.019 61.44C433.779 60.88 434.772 60.6 435.999 60.6C437.265 60.6 438.205 60.9 438.819 61.5C439.432 62.1 439.739 63 439.739 64.2V69.1C439.739 69.3933 439.759 69.7 439.799 70.02C439.839 70.3267 439.892 70.6533 439.959 71H438.419ZM434.919 71.2C433.865 71.2 433.025 70.9467 432.399 70.44C431.785 69.92 431.479 69.2133 431.479 68.32C431.479 67.4267 431.785 66.7333 432.399 66.24C433.012 65.7467 433.905 65.4 435.079 65.2L438.639 64.6V65.92L435.319 66.44C434.572 66.56 434.005 66.76 433.619 67.04C433.232 67.32 433.039 67.7267 433.039 68.26C433.039 68.78 433.212 69.1733 433.559 69.44C433.919 69.7067 434.445 69.84 435.139 69.84C436.032 69.84 436.759 69.64 437.319 69.24C437.892 68.8267 438.179 68.2933 438.179 67.64L438.439 69.06C438.225 69.74 437.805 70.2667 437.179 70.64C436.565 71.0133 435.812 71.2 434.919 71.2ZM446.883 75.3C445.669 75.3 444.656 75.0133 443.843 74.44C443.043 73.88 442.556 73.1333 442.383 72.2H443.903C444.049 72.7333 444.376 73.1533 444.883 73.46C445.403 73.78 446.103 73.94 446.983 73.94C448.023 73.94 448.809 73.6533 449.343 73.08C449.876 72.52 450.143 71.6933 450.143 70.6V68.42L450.343 68.46C450.116 69.2333 449.663 69.8533 448.983 70.32C448.303 70.7733 447.496 71 446.563 71C445.669 71 444.883 70.7867 444.203 70.36C443.523 69.92 442.996 69.3133 442.623 68.54C442.249 67.7667 442.063 66.8667 442.063 65.84C442.063 64.8 442.256 63.8867 442.643 63.1C443.029 62.3133 443.569 61.7067 444.263 61.28C444.969 60.84 445.789 60.62 446.723 60.62C447.683 60.62 448.483 60.8533 449.123 61.32C449.776 61.7867 450.209 62.4533 450.423 63.32L450.243 63.34V60.8H451.743V70.6C451.743 72.0533 451.309 73.2 450.443 74.04C449.576 74.88 448.389 75.3 446.883 75.3ZM446.963 69.62C447.963 69.62 448.756 69.2733 449.343 68.58C449.929 67.8867 450.223 66.9467 450.223 65.76C450.223 64.6 449.929 63.6867 449.343 63.02C448.756 62.34 447.963 62 446.963 62C445.949 62 445.149 62.34 444.563 63.02C443.989 63.7 443.703 64.6333 443.703 65.82C443.703 66.98 443.996 67.9067 444.583 68.6C445.169 69.28 445.963 69.62 446.963 69.62ZM459.132 71.2C458.158 71.2 457.298 70.9733 456.552 70.52C455.805 70.0533 455.218 69.42 454.792 68.62C454.365 67.82 454.152 66.9 454.152 65.86C454.152 64.82 454.358 63.9067 454.772 63.12C455.198 62.32 455.792 61.7 456.552 61.26C457.312 60.82 458.185 60.6 459.172 60.6C460.118 60.6 460.938 60.8067 461.632 61.22C462.338 61.6333 462.878 62.2133 463.252 62.96C463.638 63.7067 463.832 64.5867 463.832 65.6C463.832 65.7333 463.825 65.86 463.812 65.98C463.812 66.1 463.798 66.2333 463.772 66.38H455.352V65.04H462.792L462.272 65.78C462.272 64.5533 461.998 63.6133 461.452 62.96C460.918 62.2933 460.158 61.96 459.172 61.96C458.158 61.96 457.338 62.3133 456.712 63.02C456.098 63.7133 455.792 64.6533 455.792 65.84C455.792 67.0533 456.098 68.0267 456.712 68.76C457.338 69.48 458.172 69.84 459.212 69.84C459.865 69.84 460.438 69.7 460.932 69.42C461.425 69.1267 461.785 68.7133 462.012 68.18H463.532C463.198 69.1133 462.638 69.8533 461.852 70.4C461.078 70.9333 460.172 71.2 459.132 71.2ZM469.701 71.2C468.447 71.2 467.447 70.9133 466.701 70.34C465.954 69.7533 465.527 68.9267 465.421 67.86H466.961C467.054 68.5133 467.341 69.0133 467.821 69.36C468.301 69.7067 468.941 69.88 469.741 69.88C470.447 69.88 471.001 69.7467 471.401 69.48C471.801 69.2133 472.001 68.8333 472.001 68.34C472.001 67.9933 471.887 67.6933 471.661 67.44C471.434 67.1733 470.981 66.9533 470.301 66.78L468.661 66.36C467.727 66.12 467.027 65.7533 466.561 65.26C466.094 64.7533 465.861 64.1533 465.861 63.46C465.861 62.58 466.187 61.8867 466.841 61.38C467.494 60.86 468.381 60.6 469.501 60.6C470.607 60.6 471.507 60.8667 472.201 61.4C472.894 61.9333 473.287 62.6733 473.381 63.62H471.841C471.747 63.0733 471.494 62.6533 471.081 62.36C470.667 62.0667 470.121 61.92 469.441 61.92C468.787 61.92 468.281 62.0467 467.921 62.3C467.561 62.54 467.381 62.8867 467.381 63.34C467.381 63.6867 467.507 63.9867 467.761 64.24C468.027 64.4933 468.467 64.7067 469.081 64.88L470.681 65.32C471.627 65.5733 472.341 65.96 472.821 66.48C473.301 67 473.541 67.6267 473.541 68.36C473.541 69.2533 473.201 69.9533 472.521 70.46C471.841 70.9533 470.901 71.2 469.701 71.2ZM479.298 72.2L484.358 56H485.758L480.698 72.2H479.298ZM498.789 71.2C497.802 71.2 496.889 71.02 496.049 70.66C495.222 70.2867 494.502 69.7733 493.889 69.12C493.275 68.4533 492.802 67.6733 492.469 66.78C492.135 65.8733 491.969 64.88 491.969 63.8C491.969 62.72 492.135 61.7333 492.469 60.84C492.802 59.9333 493.269 59.1533 493.869 58.5C494.482 57.8333 495.202 57.32 496.029 56.96C496.869 56.5867 497.782 56.4 498.769 56.4C499.849 56.4 500.815 56.62 501.669 57.06C502.535 57.5 503.242 58.12 503.789 58.92C504.349 59.72 504.695 60.6533 504.829 61.72H503.189C503.029 60.5333 502.555 59.6 501.769 58.92C500.995 58.2267 500.002 57.88 498.789 57.88C497.762 57.88 496.862 58.1333 496.089 58.64C495.315 59.1333 494.715 59.8267 494.289 60.72C493.862 61.6 493.649 62.6267 493.649 63.8C493.649 64.9733 493.862 66.0067 494.289 66.9C494.715 67.78 495.315 68.4733 496.089 68.98C496.862 69.4733 497.755 69.72 498.769 69.72C500.009 69.72 501.022 69.3733 501.809 68.68C502.609 67.9867 503.082 67.0533 503.229 65.88H504.869C504.735 66.9467 504.389 67.88 503.829 68.68C503.282 69.48 502.575 70.1 501.709 70.54C500.855 70.98 499.882 71.2 498.789 71.2ZM507.393 71V56.6H508.993V71H507.393ZM514.693 71V64.32C514.693 63.5467 514.5 62.9667 514.113 62.58C513.726 62.1933 513.153 62 512.393 62C511.726 62 511.133 62.1467 510.613 62.44C510.106 62.7333 509.706 63.14 509.413 63.66C509.133 64.18 508.993 64.7867 508.993 65.48L508.733 63.06C509.08 62.3 509.606 61.7 510.313 61.26C511.033 60.82 511.846 60.6 512.753 60.6C513.82 60.6 514.673 60.9067 515.313 61.52C515.966 62.12 516.293 62.9133 516.293 63.9V71H514.693ZM525.567 71C525.514 70.7733 525.474 70.5133 525.447 70.22C525.434 69.9267 525.427 69.5533 525.427 69.1H525.327V64.22C525.327 63.4467 525.147 62.88 524.787 62.52C524.44 62.1467 523.874 61.96 523.087 61.96C522.314 61.96 521.694 62.12 521.227 62.44C520.774 62.7467 520.52 63.1867 520.467 63.76H518.927C518.994 62.7733 519.407 62 520.167 61.44C520.927 60.88 521.92 60.6 523.147 60.6C524.414 60.6 525.354 60.9 525.967 61.5C526.58 62.1 526.887 63 526.887 64.2V69.1C526.887 69.3933 526.907 69.7 526.947 70.02C526.987 70.3267 527.04 70.6533 527.107 71H525.567ZM522.067 71.2C521.014 71.2 520.174 70.9467 519.547 70.44C518.934 69.92 518.627 69.2133 518.627 68.32C518.627 67.4267 518.934 66.7333 519.547 66.24C520.16 65.7467 521.054 65.4 522.227 65.2L525.787 64.6V65.92L522.467 66.44C521.72 66.56 521.154 66.76 520.767 67.04C520.38 67.32 520.187 67.7267 520.187 68.26C520.187 68.78 520.36 69.1733 520.707 69.44C521.067 69.7067 521.594 69.84 522.287 69.84C523.18 69.84 523.907 69.64 524.467 69.24C525.04 68.8267 525.327 68.2933 525.327 67.64L525.587 69.06C525.374 69.74 524.954 70.2667 524.327 70.64C523.714 71.0133 522.96 71.2 522.067 71.2ZM533.778 71.18C532.644 71.18 531.818 70.9267 531.298 70.42C530.791 69.9 530.538 69.1533 530.538 68.18V58.42L532.138 57.82V68.16C532.138 68.7333 532.284 69.1533 532.578 69.42C532.871 69.6867 533.351 69.82 534.018 69.82C534.284 69.82 534.511 69.8067 534.698 69.78C534.898 69.74 535.058 69.6933 535.178 69.64V71C535.044 71.0533 534.851 71.0933 534.598 71.12C534.358 71.16 534.084 71.18 533.778 71.18ZM528.438 62.16V60.8H535.178V62.16H528.438ZM540.361 71L545.921 56.6H547.361L541.941 71H540.361ZM551.801 71L546.381 56.6H547.921L553.481 71H551.801ZM543.121 65.18H550.641V66.62H543.121V65.18ZM558.861 71.2C557.607 71.2 556.607 70.9133 555.861 70.34C555.114 69.7533 554.687 68.9267 554.581 67.86H556.121C556.214 68.5133 556.501 69.0133 556.981 69.36C557.461 69.7067 558.101 69.88 558.901 69.88C559.607 69.88 560.161 69.7467 560.561 69.48C560.961 69.2133 561.161 68.8333 561.161 68.34C561.161 67.9933 561.047 67.6933 560.821 67.44C560.594 67.1733 560.141 66.9533 559.461 66.78L557.821 66.36C556.887 66.12 556.187 65.7533 555.721 65.26C555.254 64.7533 555.021 64.1533 555.021 63.46C555.021 62.58 555.347 61.8867 556.001 61.38C556.654 60.86 557.541 60.6 558.661 60.6C559.767 60.6 560.667 60.8667 561.361 61.4C562.054 61.9333 562.447 62.6733 562.541 63.62H561.001C560.907 63.0733 560.654 62.6533 560.241 62.36C559.827 62.0667 559.281 61.92 558.601 61.92C557.947 61.92 557.441 62.0467 557.081 62.3C556.721 62.54 556.541 62.8867 556.541 63.34C556.541 63.6867 556.667 63.9867 556.921 64.24C557.187 64.4933 557.627 64.7067 558.241 64.88L559.841 65.32C560.787 65.5733 561.501 65.96 561.981 66.48C562.461 67 562.701 67.6267 562.701 68.36C562.701 69.2533 562.361 69.9533 561.681 70.46C561.001 70.9533 560.061 71.2 558.861 71.2ZM568.509 71.2C567.256 71.2 566.256 70.9133 565.509 70.34C564.763 69.7533 564.336 68.9267 564.229 67.86H565.769C565.863 68.5133 566.149 69.0133 566.629 69.36C567.109 69.7067 567.749 69.88 568.549 69.88C569.256 69.88 569.809 69.7467 570.209 69.48C570.609 69.2133 570.809 68.8333 570.809 68.34C570.809 67.9933 570.696 67.6933 570.469 67.44C570.243 67.1733 569.789 66.9533 569.109 66.78L567.469 66.36C566.536 66.12 565.836 65.7533 565.369 65.26C564.903 64.7533 564.669 64.1533 564.669 63.46C564.669 62.58 564.996 61.8867 565.649 61.38C566.303 60.86 567.189 60.6 568.309 60.6C569.416 60.6 570.316 60.8667 571.009 61.4C571.703 61.9333 572.096 62.6733 572.189 63.62H570.649C570.556 63.0733 570.303 62.6533 569.889 62.36C569.476 62.0667 568.929 61.92 568.249 61.92C567.596 61.92 567.089 62.0467 566.729 62.3C566.369 62.54 566.189 62.8867 566.189 63.34C566.189 63.6867 566.316 63.9867 566.569 64.24C566.836 64.4933 567.276 64.7067 567.889 64.88L569.489 65.32C570.436 65.5733 571.149 65.96 571.629 66.48C572.109 67 572.349 67.6267 572.349 68.36C572.349 69.2533 572.009 69.9533 571.329 70.46C570.649 70.9533 569.709 71.2 568.509 71.2ZM574.659 71V60.8H576.259V71H574.659ZM574.539 58.48V56.6H576.379V58.48H574.539ZM582.923 71.2C581.67 71.2 580.67 70.9133 579.923 70.34C579.177 69.7533 578.75 68.9267 578.643 67.86H580.183C580.277 68.5133 580.563 69.0133 581.043 69.36C581.523 69.7067 582.163 69.88 582.963 69.88C583.67 69.88 584.223 69.7467 584.623 69.48C585.023 69.2133 585.223 68.8333 585.223 68.34C585.223 67.9933 585.11 67.6933 584.883 67.44C584.657 67.1733 584.203 66.9533 583.523 66.78L581.883 66.36C580.95 66.12 580.25 65.7533 579.783 65.26C579.317 64.7533 579.083 64.1533 579.083 63.46C579.083 62.58 579.41 61.8867 580.063 61.38C580.717 60.86 581.603 60.6 582.723 60.6C583.83 60.6 584.73 60.8667 585.423 61.4C586.117 61.9333 586.51 62.6733 586.603 63.62H585.063C584.97 63.0733 584.717 62.6533 584.303 62.36C583.89 62.0667 583.343 61.92 582.663 61.92C582.01 61.92 581.503 62.0467 581.143 62.3C580.783 62.54 580.603 62.8867 580.603 63.34C580.603 63.6867 580.73 63.9867 580.983 64.24C581.25 64.4933 581.69 64.7067 582.303 64.88L583.903 65.32C584.85 65.5733 585.563 65.96 586.043 66.48C586.523 67 586.763 67.6267 586.763 68.36C586.763 69.2533 586.423 69.9533 585.743 70.46C585.063 70.9533 584.123 71.2 582.923 71.2ZM592.996 71.18C591.863 71.18 591.036 70.9267 590.516 70.42C590.01 69.9 589.756 69.1533 589.756 68.18V58.42L591.356 57.82V68.16C591.356 68.7333 591.503 69.1533 591.796 69.42C592.09 69.6867 592.57 69.82 593.236 69.82C593.503 69.82 593.73 69.8067 593.916 69.78C594.116 69.74 594.276 69.6933 594.396 69.64V71C594.263 71.0533 594.07 71.0933 593.816 71.12C593.576 71.16 593.303 71.18 592.996 71.18ZM587.656 62.16V60.8H594.396V62.16H587.656ZM602.715 71C602.662 70.7733 602.622 70.5133 602.595 70.22C602.582 69.9267 602.575 69.5533 602.575 69.1H602.475V64.22C602.475 63.4467 602.295 62.88 601.935 62.52C601.589 62.1467 601.022 61.96 600.235 61.96C599.462 61.96 598.842 62.12 598.375 62.44C597.922 62.7467 597.669 63.1867 597.615 63.76H596.075C596.142 62.7733 596.555 62 597.315 61.44C598.075 60.88 599.069 60.6 600.295 60.6C601.562 60.6 602.502 60.9 603.115 61.5C603.729 62.1 604.035 63 604.035 64.2V69.1C604.035 69.3933 604.055 69.7 604.095 70.02C604.135 70.3267 604.189 70.6533 604.255 71H602.715ZM599.215 71.2C598.162 71.2 597.322 70.9467 596.695 70.44C596.082 69.92 595.775 69.2133 595.775 68.32C595.775 67.4267 596.082 66.7333 596.695 66.24C597.309 65.7467 598.202 65.4 599.375 65.2L602.935 64.6V65.92L599.615 66.44C598.869 66.56 598.302 66.76 597.915 67.04C597.529 67.32 597.335 67.7267 597.335 68.26C597.335 68.78 597.509 69.1733 597.855 69.44C598.215 69.7067 598.742 69.84 599.435 69.84C600.329 69.84 601.055 69.64 601.615 69.24C602.189 68.8267 602.475 68.2933 602.475 67.64L602.735 69.06C602.522 69.74 602.102 70.2667 601.475 70.64C600.862 71.0133 600.109 71.2 599.215 71.2ZM607.12 71V60.8H608.62V63.2H608.72V71H607.12ZM614.42 71V64.32C614.42 63.5467 614.226 62.9667 613.84 62.58C613.453 62.1933 612.88 62 612.12 62C611.453 62 610.86 62.1467 610.34 62.44C609.833 62.7333 609.433 63.14 609.14 63.66C608.86 64.18 608.72 64.7867 608.72 65.48L608.46 63.06C608.806 62.3 609.333 61.7 610.04 61.26C610.76 60.82 611.573 60.6 612.48 60.6C613.546 60.6 614.4 60.9067 615.04 61.52C615.693 62.12 616.02 62.9133 616.02 63.9V71H614.42ZM622.899 71.18C621.765 71.18 620.939 70.9267 620.419 70.42C619.912 69.9 619.659 69.1533 619.659 68.18V58.42L621.259 57.82V68.16C621.259 68.7333 621.405 69.1533 621.699 69.42C621.992 69.6867 622.472 69.82 623.139 69.82C623.405 69.82 623.632 69.8067 623.819 69.78C624.019 69.74 624.179 69.6933 624.299 69.64V71C624.165 71.0533 623.972 71.0933 623.719 71.12C623.479 71.16 623.205 71.18 622.899 71.18ZM617.559 62.16V60.8H624.299V62.16H617.559Z" fill="#1A120B"/>
<g clip-path="url(#clip2_40_2)">
<path fill-rule="evenodd" clip-rule="evenodd" d="M48 188C47.2044 188 46.4413 188.316 45.8787 188.879C45.3161 189.441 45 190.204 45 191V208.838L43.0513 214.684C42.9359 215.03 43.0183 215.412 43.2663 215.679C43.5143 215.947 43.8885 216.059 44.2426 215.97L52.1231 214H68C68.7956 214 69.5588 213.684 70.1214 213.121C70.684 212.559 71 211.796 71 211V191C71 190.204 70.684 189.441 70.1214 188.879C69.5588 188.316 68.7956 188 68 188H48ZM50.75 197.691C50.75 197.001 51.3096 196.441 52 196.441H64C64.6904 196.441 65.25 197.001 65.25 197.691C65.25 198.382 64.6904 198.941 64 198.941H52C51.3096 198.941 50.75 198.382 50.75 197.691ZM52 203.059C51.3096 203.059 50.75 203.618 50.75 204.309C50.75 204.999 51.3096 205.559 52 205.559H60C60.6904 205.559 61.25 204.999 61.25 204.309C61.25 203.618 60.6904 203.059 60 203.059H52Z" fill="black"/>
</g>
<path d="M435.595 125.45C433.255 125.45 431.095 125.045 429.115 124.235C427.135 123.395 425.41 122.225 423.94 120.725C422.5 119.225 421.375 117.455 420.565 115.415C419.755 113.345 419.35 111.095 419.35 108.665C419.35 106.235 419.74 104.015 420.52 102.005C421.33 99.995 422.455 98.255 423.895 96.785C425.365 95.285 427.09 94.145 429.07 93.365C431.05 92.555 433.225 92.15 435.595 92.15C438.265 92.15 440.665 92.675 442.795 93.725C444.955 94.745 446.71 96.2 448.06 98.09C449.44 99.95 450.28 102.14 450.58 104.66H443.83C443.44 102.35 442.495 100.61 440.995 99.44C439.495 98.24 437.71 97.64 435.64 97.64C433.81 97.64 432.19 98.075 430.78 98.945C429.4 99.815 428.32 101.075 427.54 102.725C426.76 104.345 426.37 106.31 426.37 108.62C426.37 110.96 426.76 112.985 427.54 114.695C428.35 116.375 429.46 117.68 430.87 118.61C432.28 119.51 433.9 119.96 435.73 119.96C437.68 119.96 439.405 119.375 440.905 118.205C442.405 117.035 443.38 115.295 443.83 112.985H450.67C450.28 115.505 449.395 117.71 448.015 119.6C446.635 121.46 444.88 122.9 442.75 123.92C440.62 124.94 438.235 125.45 435.595 125.45ZM454.45 125V92.6H461.2V125H454.45ZM470.425 125V110.78C470.425 109.52 470.095 108.575 469.435 107.945C468.805 107.315 467.875 107 466.645 107C465.595 107 464.65 107.24 463.81 107.72C463 108.2 462.355 108.86 461.875 109.7C461.425 110.54 461.2 111.53 461.2 112.67L460.615 107.135C461.365 105.455 462.46 104.12 463.9 103.13C465.37 102.11 467.17 101.6 469.3 101.6C471.85 101.6 473.8 102.32 475.15 103.76C476.5 105.17 477.175 107.075 477.175 109.475V125H470.425ZM496.185 125C496.005 124.34 495.87 123.635 495.78 122.885C495.72 122.135 495.69 121.265 495.69 120.275H495.51V109.43C495.51 108.5 495.195 107.78 494.565 107.27C493.965 106.73 493.065 106.46 491.865 106.46C490.725 106.46 489.81 106.655 489.12 107.045C488.46 107.435 488.025 108.005 487.815 108.755H481.38C481.68 106.685 482.745 104.975 484.575 103.625C486.405 102.275 488.91 101.6 492.09 101.6C495.39 101.6 497.91 102.335 499.65 103.805C501.39 105.275 502.26 107.39 502.26 110.15V120.275C502.26 121.025 502.305 121.79 502.395 122.57C502.515 123.32 502.695 124.13 502.935 125H496.185ZM488.175 125.45C485.895 125.45 484.08 124.88 482.73 123.74C481.38 122.57 480.705 121.025 480.705 119.105C480.705 116.975 481.5 115.265 483.09 113.975C484.71 112.655 486.96 111.8 489.84 111.41L496.545 110.465V114.38L490.965 115.235C489.765 115.415 488.88 115.745 488.31 116.225C487.74 116.705 487.455 117.365 487.455 118.205C487.455 118.955 487.725 119.525 488.265 119.915C488.805 120.305 489.525 120.5 490.425 120.5C491.835 120.5 493.035 120.125 494.025 119.375C495.015 118.595 495.51 117.695 495.51 116.675L496.14 120.275C495.48 121.985 494.475 123.275 493.125 124.145C491.775 125.015 490.125 125.45 488.175 125.45ZM516.756 125.495C513.816 125.495 511.626 124.79 510.186 123.38C508.776 121.94 508.071 119.765 508.071 116.855V96.92L514.821 94.4V117.08C514.821 118.1 515.106 118.865 515.676 119.375C516.246 119.885 517.131 120.14 518.331 120.14C518.781 120.14 519.201 120.095 519.591 120.005C519.981 119.915 520.371 119.81 520.761 119.69V124.82C520.371 125.03 519.816 125.195 519.096 125.315C518.406 125.435 517.626 125.495 516.756 125.495ZM503.796 107.18V102.05H520.761V107.18H503.796ZM531.756 125L543.366 92.6H549.306L538.641 125H531.756ZM555.516 125L544.896 92.6H551.106L562.716 125H555.516ZM537.876 112.445H556.056V117.845H537.876V112.445ZM574.946 125.45C571.586 125.45 568.916 124.775 566.936 123.425C564.956 122.075 563.876 120.215 563.696 117.845H569.726C569.876 118.865 570.386 119.645 571.256 120.185C572.156 120.695 573.386 120.95 574.946 120.95C576.356 120.95 577.376 120.755 578.006 120.365C578.666 119.945 578.996 119.36 578.996 118.61C578.996 118.04 578.801 117.605 578.411 117.305C578.051 116.975 577.376 116.705 576.386 116.495L572.696 115.73C569.966 115.16 567.956 114.305 566.666 113.165C565.376 111.995 564.731 110.495 564.731 108.665C564.731 106.445 565.586 104.72 567.296 103.49C569.006 102.23 571.391 101.6 574.451 101.6C577.481 101.6 579.896 102.215 581.696 103.445C583.496 104.645 584.486 106.325 584.666 108.485H578.636C578.516 107.705 578.096 107.12 577.376 106.73C576.656 106.31 575.636 106.1 574.316 106.1C573.116 106.1 572.216 106.28 571.616 106.64C571.046 106.97 570.761 107.45 570.761 108.08C570.761 108.62 571.001 109.055 571.481 109.385C571.961 109.685 572.756 109.955 573.866 110.195L578.006 111.05C580.316 111.53 582.056 112.43 583.226 113.75C584.426 115.04 585.026 116.57 585.026 118.34C585.026 120.59 584.141 122.345 582.371 123.605C580.631 124.835 578.156 125.45 574.946 125.45ZM597.973 125.45C594.613 125.45 591.943 124.775 589.963 123.425C587.983 122.075 586.903 120.215 586.723 117.845H592.753C592.903 118.865 593.413 119.645 594.283 120.185C595.183 120.695 596.413 120.95 597.973 120.95C599.383 120.95 600.403 120.755 601.033 120.365C601.693 119.945 602.023 119.36 602.023 118.61C602.023 118.04 601.828 117.605 601.438 117.305C601.078 116.975 600.403 116.705 599.413 116.495L595.723 115.73C592.993 115.16 590.983 114.305 589.693 113.165C588.403 111.995 587.758 110.495 587.758 108.665C587.758 106.445 588.613 104.72 590.323 103.49C592.033 102.23 594.418 101.6 597.478 101.6C600.508 101.6 602.923 102.215 604.723 103.445C606.523 104.645 607.513 106.325 607.693 108.485H601.663C601.543 107.705 601.123 107.12 600.403 106.73C599.683 106.31 598.663 106.1 597.343 106.1C596.143 106.1 595.243 106.28 594.643 106.64C594.073 106.97 593.788 107.45 593.788 108.08C593.788 108.62 594.028 109.055 594.508 109.385C594.988 109.685 595.783 109.955 596.893 110.195L601.033 111.05C603.343 111.53 605.083 112.43 606.253 113.75C607.453 115.04 608.053 116.57 608.053 118.34C608.053 120.59 607.168 122.345 605.398 123.605C603.658 124.835 601.183 125.45 597.973 125.45ZM611.379 125V102.05H618.129V125H611.379ZM611.154 98.99V91.7H618.354V98.99H611.154ZM632.646 125.45C629.286 125.45 626.616 124.775 624.636 123.425C622.656 122.075 621.576 120.215 621.396 117.845H627.426C627.576 118.865 628.086 119.645 628.956 120.185C629.856 120.695 631.086 120.95 632.646 120.95C634.056 120.95 635.076 120.755 635.706 120.365C636.366 119.945 636.696 119.36 636.696 118.61C636.696 118.04 636.501 117.605 636.111 117.305C635.751 116.975 635.076 116.705 634.086 116.495L630.396 115.73C627.666 115.16 625.656 114.305 624.366 113.165C623.076 111.995 622.431 110.495 622.431 108.665C622.431 106.445 623.286 104.72 624.996 103.49C626.706 102.23 629.091 101.6 632.151 101.6C635.181 101.6 637.596 102.215 639.396 103.445C641.196 104.645 642.186 106.325 642.366 108.485H636.336C636.216 107.705 635.796 107.12 635.076 106.73C634.356 106.31 633.336 106.1 632.016 106.1C630.816 106.1 629.916 106.28 629.316 106.64C628.746 106.97 628.461 107.45 628.461 108.08C628.461 108.62 628.701 109.055 629.181 109.385C629.661 109.685 630.456 109.955 631.566 110.195L635.706 111.05C638.016 111.53 639.756 112.43 640.926 113.75C642.126 115.04 642.726 116.57 642.726 118.34C642.726 120.59 641.841 122.345 640.071 123.605C638.331 124.835 635.856 125.45 632.646 125.45ZM656.854 125.495C653.914 125.495 651.724 124.79 650.284 123.38C648.874 121.94 648.169 119.765 648.169 116.855V96.92L654.919 94.4V117.08C654.919 118.1 655.204 118.865 655.774 119.375C656.344 119.885 657.229 120.14 658.429 120.14C658.879 120.14 659.299 120.095 659.689 120.005C660.079 119.915 660.469 119.81 660.859 119.69V124.82C660.469 125.03 659.914 125.195 659.194 125.315C658.504 125.435 657.724 125.495 656.854 125.495ZM643.894 107.18V102.05H660.859V107.18H643.894ZM678.91 125C678.73 124.34 678.595 123.635 678.505 122.885C678.445 122.135 678.415 121.265 678.415 120.275H678.235V109.43C678.235 108.5 677.92 107.78 677.29 107.27C676.69 106.73 675.79 106.46 674.59 106.46C673.45 106.46 672.535 106.655 671.845 107.045C671.185 107.435 670.75 108.005 670.54 108.755H664.105C664.405 106.685 665.47 104.975 667.3 103.625C669.13 102.275 671.635 101.6 674.815 101.6C678.115 101.6 680.635 102.335 682.375 103.805C684.115 105.275 684.985 107.39 684.985 110.15V120.275C684.985 121.025 685.03 121.79 685.12 122.57C685.24 123.32 685.42 124.13 685.66 125H678.91ZM670.9 125.45C668.62 125.45 666.805 124.88 665.455 123.74C664.105 122.57 663.43 121.025 663.43 119.105C663.43 116.975 664.225 115.265 665.815 113.975C667.435 112.655 669.685 111.8 672.565 111.41L679.27 110.465V114.38L673.69 115.235C672.49 115.415 671.605 115.745 671.035 116.225C670.465 116.705 670.18 117.365 670.18 118.205C670.18 118.955 670.45 119.525 670.99 119.915C671.53 120.305 672.25 120.5 673.15 120.5C674.56 120.5 675.76 120.125 676.75 119.375C677.74 118.595 678.235 117.695 678.235 116.675L678.865 120.275C678.205 121.985 677.2 123.275 675.85 124.145C674.5 125.015 672.85 125.45 670.9 125.45ZM690.173 125V102.05H696.788V107.45H696.923V125H690.173ZM706.148 125V110.78C706.148 109.52 705.818 108.575 705.158 107.945C704.528 107.315 703.598 107 702.368 107C701.318 107 700.373 107.24 699.533 107.72C698.723 108.2 698.078 108.86 697.598 109.7C697.148 110.54 696.923 111.53 696.923 112.67L696.338 107.135C697.088 105.455 698.183 104.12 699.623 103.13C701.093 102.11 702.893 101.6 705.023 101.6C707.573 101.6 709.523 102.32 710.873 103.76C712.223 105.17 712.898 107.075 712.898 109.475V125H706.148ZM727.957 125.495C725.017 125.495 722.827 124.79 721.387 123.38C719.977 121.94 719.272 119.765 719.272 116.855V96.92L726.022 94.4V117.08C726.022 118.1 726.307 118.865 726.877 119.375C727.447 119.885 728.332 120.14 729.532 120.14C729.982 120.14 730.402 120.095 730.792 120.005C731.182 119.915 731.572 119.81 731.962 119.69V124.82C731.572 125.03 731.017 125.195 730.297 125.315C729.607 125.435 728.827 125.495 727.957 125.495ZM714.997 107.18V102.05H731.962V107.18H714.997Z" fill="#1A120B"/>
<g filter="url(#filter1_d_40_2)">
<g filter="url(#filter2_d_40_2)">
<rect x="1408" y="44" width="74" height="74" rx="37" fill="#D5CEA3"/>
</g>
<path d="M1445.46 72.2001C1445.55 72.084 1445.6 71.9452 1445.61 71.8005C1445.62 71.6557 1445.59 71.5112 1445.52 71.3845C1445.45 71.2578 1445.34 71.1544 1445.21 71.0867C1445.08 71.019 1444.94 70.9899 1444.79 71.0031C1439.38 71.4971 1436.36 75.7551 1436.03 80.1081C1435.7 84.4691 1438.07 89.0831 1443.48 90.2741C1449.17 91.5241 1454.95 87.4371 1455.5 81.6281C1455.51 81.4843 1455.48 81.3396 1455.42 81.2115C1455.35 81.0833 1455.25 80.9772 1455.12 80.9058C1455 80.8344 1454.85 80.8008 1454.71 80.809C1454.56 80.8172 1454.42 80.8669 1454.31 80.9521C1451.47 83.0211 1448.23 82.2681 1446.17 80.2281C1444.12 78.1891 1443.37 74.9891 1445.46 72.2001Z" fill="#3C2A21"/>
</g>
<rect x="1281" y="571" width="207" height="65" rx="32.5" fill="url(#paint0_linear_40_2)" fill-opacity="0.9"/>
<path d="M1360.34 599.453C1360.27 598.833 1359.99 598.35 1359.5 598.004C1359.01 597.659 1358.38 597.486 1357.6 597.486C1357.05 597.486 1356.58 597.569 1356.18 597.734C1355.79 597.9 1355.49 598.125 1355.28 598.409C1355.07 598.693 1354.97 599.018 1354.96 599.382C1354.96 599.685 1355.03 599.948 1355.17 600.17C1355.31 600.393 1355.5 600.582 1355.74 600.739C1355.99 600.89 1356.25 601.018 1356.55 601.122C1356.84 601.226 1357.14 601.314 1357.43 601.385L1358.8 601.726C1359.35 601.854 1359.88 602.027 1360.38 602.244C1360.89 602.462 1361.35 602.737 1361.75 603.068C1362.16 603.4 1362.48 603.8 1362.72 604.268C1362.96 604.737 1363.07 605.286 1363.07 605.916C1363.07 606.768 1362.86 607.519 1362.42 608.168C1361.98 608.812 1361.36 609.316 1360.53 609.68C1359.71 610.04 1358.72 610.22 1357.56 610.22C1356.42 610.22 1355.44 610.045 1354.61 609.695C1353.78 609.344 1353.13 608.833 1352.66 608.161C1352.2 607.488 1351.95 606.669 1351.91 605.703H1354.5C1354.54 606.21 1354.7 606.631 1354.97 606.967C1355.24 607.304 1355.6 607.554 1356.04 607.72C1356.49 607.886 1356.98 607.969 1357.53 607.969C1358.11 607.969 1358.61 607.884 1359.04 607.713C1359.48 607.538 1359.82 607.296 1360.06 606.989C1360.31 606.676 1360.43 606.312 1360.44 605.895C1360.43 605.516 1360.32 605.204 1360.11 604.957C1359.89 604.706 1359.58 604.498 1359.19 604.332C1358.8 604.162 1358.35 604.01 1357.83 603.878L1356.17 603.452C1354.97 603.144 1354.03 602.678 1353.33 602.053C1352.64 601.423 1352.29 600.587 1352.29 599.545C1352.29 598.688 1352.52 597.938 1352.99 597.294C1353.46 596.65 1354.09 596.151 1354.9 595.795C1355.7 595.436 1356.62 595.256 1357.63 595.256C1358.67 595.256 1359.57 595.436 1360.35 595.795C1361.13 596.151 1361.74 596.645 1362.19 597.28C1362.63 597.91 1362.86 598.634 1362.88 599.453H1360.34ZM1372.26 605.412V599.091H1374.83V610H1372.34V608.061H1372.23C1371.98 608.672 1371.58 609.171 1371.01 609.56C1370.45 609.948 1369.76 610.142 1368.95 610.142C1368.23 610.142 1367.6 609.983 1367.05 609.666C1366.5 609.344 1366.08 608.878 1365.77 608.267C1365.46 607.652 1365.31 606.908 1365.31 606.037V599.091H1367.88V605.639C1367.88 606.33 1368.07 606.88 1368.45 607.287C1368.83 607.694 1369.32 607.898 1369.94 607.898C1370.32 607.898 1370.69 607.805 1371.04 607.621C1371.4 607.436 1371.69 607.161 1371.91 606.797C1372.15 606.428 1372.26 605.966 1372.26 605.412ZM1377.59 610V595.455H1380.16V600.895H1380.27C1380.4 600.63 1380.59 600.348 1380.83 600.05C1381.07 599.747 1381.4 599.489 1381.81 599.276C1382.22 599.058 1382.75 598.949 1383.39 598.949C1384.23 598.949 1384.99 599.164 1385.67 599.595C1386.35 600.021 1386.89 600.653 1387.29 601.491C1387.69 602.325 1387.89 603.348 1387.89 604.56C1387.89 605.758 1387.69 606.776 1387.3 607.614C1386.91 608.452 1386.37 609.091 1385.69 609.531C1385.02 609.972 1384.25 610.192 1383.39 610.192C1382.77 610.192 1382.25 610.088 1381.84 609.879C1381.43 609.671 1381.09 609.42 1380.84 609.126C1380.6 608.828 1380.41 608.546 1380.27 608.281H1380.12V610H1377.59ZM1380.11 604.545C1380.11 605.251 1380.21 605.869 1380.41 606.399C1380.61 606.929 1380.91 607.344 1381.28 607.642C1381.67 607.936 1382.13 608.082 1382.68 608.082C1383.24 608.082 1383.72 607.931 1384.1 607.628C1384.49 607.32 1384.78 606.901 1384.97 606.371C1385.17 605.836 1385.27 605.227 1385.27 604.545C1385.27 603.868 1385.17 603.267 1384.98 602.741C1384.78 602.216 1384.49 601.804 1384.11 601.506C1383.73 601.207 1383.25 601.058 1382.68 601.058C1382.13 601.058 1381.66 601.203 1381.28 601.491C1380.89 601.78 1380.6 602.185 1380.4 602.706C1380.21 603.227 1380.11 603.84 1380.11 604.545ZM1390.07 610V599.091H1392.53V600.945H1392.66C1392.89 600.32 1393.26 599.832 1393.79 599.482C1394.31 599.126 1394.94 598.949 1395.67 598.949C1396.41 598.949 1397.03 599.129 1397.54 599.489C1398.05 599.844 1398.41 600.329 1398.62 600.945H1398.73C1398.97 600.339 1399.38 599.856 1399.95 599.496C1400.53 599.131 1401.22 598.949 1402.01 598.949C1403.01 598.949 1403.83 599.266 1404.46 599.901C1405.1 600.535 1405.42 601.461 1405.42 602.678V610H1402.84V603.075C1402.84 602.398 1402.66 601.903 1402.3 601.591C1401.94 601.274 1401.5 601.115 1400.98 601.115C1400.36 601.115 1399.87 601.309 1399.52 601.697C1399.18 602.081 1399 602.58 1399 603.196V610H1396.48V602.969C1396.48 602.405 1396.31 601.955 1395.97 601.619C1395.63 601.283 1395.19 601.115 1394.65 601.115C1394.28 601.115 1393.94 601.21 1393.64 601.399C1393.34 601.584 1393.1 601.847 1392.92 602.188C1392.74 602.524 1392.65 602.917 1392.65 603.366V610H1390.07ZM1408.02 610V599.091H1410.6V610H1408.02ZM1409.32 597.543C1408.91 597.543 1408.56 597.408 1408.27 597.138C1407.97 596.863 1407.83 596.534 1407.83 596.151C1407.83 595.762 1407.97 595.433 1408.27 595.163C1408.56 594.889 1408.91 594.751 1409.32 594.751C1409.73 594.751 1410.08 594.889 1410.37 595.163C1410.66 595.433 1410.81 595.762 1410.81 596.151C1410.81 596.534 1410.66 596.863 1410.37 597.138C1410.08 597.408 1409.73 597.543 1409.32 597.543ZM1418.69 599.091V601.08H1412.42V599.091H1418.69ZM1413.96 596.477H1416.53V606.719C1416.53 607.064 1416.59 607.33 1416.69 607.514C1416.8 607.694 1416.94 607.817 1417.12 607.884C1417.29 607.95 1417.49 607.983 1417.7 607.983C1417.86 607.983 1418.01 607.971 1418.14 607.947C1418.28 607.924 1418.38 607.902 1418.45 607.884L1418.89 609.893C1418.75 609.941 1418.55 609.993 1418.3 610.05C1418.04 610.107 1417.74 610.14 1417.37 610.149C1416.73 610.168 1416.15 610.071 1415.63 609.858C1415.12 609.64 1414.71 609.304 1414.4 608.849C1414.11 608.395 1413.96 607.827 1413.96 607.145V596.477Z" fill="#E5E5CB"/>
<g filter="url(#filter3_d_40_2)">
<rect x="452" y="571" width="816" height="66" rx="33" fill="#F8F8F8"/>
<rect x="452.5" y="571.5" width="815" height="65" rx="32.5" stroke="#3C2A21" stroke-opacity="0.8"/>
</g>
<path d="M480.528 610V599.632H476.576V598.48H485.792V599.632H481.84V610H480.528ZM486.89 613.28L488.714 609.04L489.002 608.592L491.674 601.84H492.986L488.25 613.28H486.89ZM488.858 610.08L485.194 601.84H486.602L489.754 609.216L488.858 610.08ZM498.593 610.144C497.825 610.144 497.18 609.957 496.657 609.584C496.135 609.211 495.777 608.683 495.585 608L495.841 607.968V613.28H494.561V601.84H495.761V603.744L495.585 603.696C495.788 603.067 496.172 602.576 496.737 602.224C497.303 601.861 497.959 601.68 498.705 601.68C499.431 601.68 500.06 601.856 500.593 602.208C501.137 602.56 501.559 603.051 501.857 603.68C502.156 604.309 502.305 605.045 502.305 605.888C502.305 606.741 502.151 607.488 501.841 608.128C501.532 608.768 501.1 609.264 500.545 609.616C499.991 609.968 499.34 610.144 498.593 610.144ZM498.401 609.024C499.212 609.024 499.847 608.747 500.305 608.192C500.764 607.627 500.993 606.859 500.993 605.888C500.993 604.928 500.764 604.176 500.305 603.632C499.847 603.077 499.212 602.8 498.401 602.8C497.591 602.8 496.951 603.083 496.481 603.648C496.012 604.203 495.777 604.965 495.777 605.936C495.777 606.885 496.012 607.637 496.481 608.192C496.951 608.747 497.591 609.024 498.401 609.024ZM507.608 610.16C506.83 610.16 506.142 609.979 505.544 609.616C504.947 609.243 504.478 608.736 504.136 608.096C503.795 607.456 503.624 606.72 503.624 605.888C503.624 605.056 503.79 604.325 504.12 603.696C504.462 603.056 504.936 602.56 505.544 602.208C506.152 601.856 506.851 601.68 507.64 601.68C508.398 601.68 509.054 601.845 509.608 602.176C510.174 602.507 510.606 602.971 510.904 603.568C511.214 604.165 511.368 604.869 511.368 605.68C511.368 605.787 511.363 605.888 511.352 605.984C511.352 606.08 511.342 606.187 511.32 606.304H504.584V605.232H510.536L510.12 605.824C510.12 604.843 509.902 604.091 509.464 603.568C509.038 603.035 508.43 602.768 507.64 602.768C506.83 602.768 506.174 603.051 505.672 603.616C505.182 604.171 504.936 604.923 504.936 605.872C504.936 606.843 505.182 607.621 505.672 608.208C506.174 608.784 506.84 609.072 507.672 609.072C508.195 609.072 508.654 608.96 509.048 608.736C509.443 608.501 509.731 608.171 509.912 607.744H511.128C510.862 608.491 510.414 609.083 509.784 609.52C509.166 609.947 508.44 610.16 507.608 610.16ZM517.203 613.28L519.027 609.04L519.315 608.592L521.987 601.84H523.299L518.563 613.28H517.203ZM519.171 610.08L515.507 601.84H516.915L520.067 609.216L519.171 610.08ZM528.063 610.16C527.263 610.16 526.559 609.973 525.951 609.6C525.343 609.227 524.868 608.72 524.527 608.08C524.196 607.429 524.031 606.699 524.031 605.888C524.031 605.067 524.201 604.341 524.543 603.712C524.884 603.083 525.353 602.587 525.951 602.224C526.559 601.861 527.263 601.68 528.063 601.68C528.873 601.68 529.577 601.861 530.175 602.224C530.783 602.587 531.252 603.083 531.583 603.712C531.924 604.341 532.095 605.067 532.095 605.888C532.095 606.699 531.924 607.429 531.583 608.08C531.252 608.72 530.783 609.227 530.175 609.6C529.577 609.973 528.873 610.16 528.063 610.16ZM528.063 609.072C528.617 609.072 529.097 608.939 529.503 608.672C529.908 608.395 530.223 608.016 530.447 607.536C530.671 607.056 530.783 606.501 530.783 605.872C530.783 604.933 530.532 604.181 530.031 603.616C529.54 603.051 528.884 602.768 528.063 602.768C527.252 602.768 526.596 603.051 526.095 603.616C525.593 604.181 525.343 604.933 525.343 605.872C525.343 606.501 525.455 607.056 525.679 607.536C525.903 608.016 526.217 608.395 526.623 608.672C527.039 608.939 527.519 609.072 528.063 609.072ZM536.67 610.16C536.137 610.16 535.662 610.053 535.246 609.84C534.83 609.616 534.505 609.307 534.27 608.912C534.036 608.507 533.918 608.043 533.918 607.52V601.84H535.198V607.184C535.198 607.803 535.348 608.267 535.646 608.576C535.956 608.885 536.393 609.04 536.958 609.04C537.47 609.04 537.924 608.923 538.318 608.688C538.713 608.453 539.022 608.128 539.246 607.712C539.481 607.285 539.598 606.8 539.598 606.256L539.806 608.192C539.54 608.8 539.124 609.28 538.558 609.632C537.993 609.984 537.364 610.16 536.67 610.16ZM539.678 610V608.08H539.598V601.84H540.878V610H539.678ZM543.436 610V601.84H544.636V603.92H544.716V610H543.436ZM544.716 605.744L544.508 603.808C544.7 603.115 545.042 602.587 545.532 602.224C546.023 601.861 546.588 601.68 547.228 601.68C547.495 601.68 547.676 601.701 547.772 601.744V602.976C547.719 602.955 547.644 602.944 547.548 602.944C547.452 602.933 547.335 602.928 547.196 602.928C546.386 602.928 545.767 603.173 545.34 603.664C544.924 604.144 544.716 604.837 544.716 605.744ZM552.639 610V601.84H553.839V603.76H553.919V610H552.639ZM558.143 610V604.592C558.143 603.973 558.005 603.52 557.727 603.232C557.45 602.944 557.05 602.8 556.527 602.8C556.037 602.8 555.594 602.917 555.199 603.152C554.805 603.387 554.49 603.712 554.255 604.128C554.031 604.544 553.919 605.029 553.919 605.584L553.711 603.648C553.989 603.04 554.405 602.56 554.959 602.208C555.514 601.856 556.117 601.68 556.767 601.68C557.557 601.68 558.197 601.915 558.687 602.384C559.178 602.843 559.423 603.467 559.423 604.256V610H558.143ZM563.647 610V604.592C563.647 603.973 563.509 603.52 563.231 603.232C562.954 602.944 562.554 602.8 562.031 602.8C561.541 602.8 561.098 602.917 560.703 603.152C560.309 603.387 559.994 603.712 559.759 604.128C559.535 604.544 559.423 605.029 559.423 605.584L559.103 603.648C559.381 603.04 559.807 602.56 560.383 602.208C560.959 601.856 561.578 601.68 562.239 601.68C563.029 601.68 563.674 601.915 564.175 602.384C564.677 602.843 564.927 603.467 564.927 604.256V610H563.647ZM570.733 610.16C569.955 610.16 569.267 609.979 568.669 609.616C568.072 609.243 567.603 608.736 567.261 608.096C566.92 607.456 566.749 606.72 566.749 605.888C566.749 605.056 566.915 604.325 567.245 603.696C567.587 603.056 568.061 602.56 568.669 602.208C569.277 601.856 569.976 601.68 570.765 601.68C571.523 601.68 572.179 601.845 572.733 602.176C573.299 602.507 573.731 602.971 574.029 603.568C574.339 604.165 574.493 604.869 574.493 605.68C574.493 605.787 574.488 605.888 574.477 605.984C574.477 606.08 574.467 606.187 574.445 606.304H567.709V605.232H573.661L573.245 605.824C573.245 604.843 573.027 604.091 572.589 603.568C572.163 603.035 571.555 602.768 570.765 602.768C569.955 602.768 569.299 603.051 568.797 603.616C568.307 604.171 568.061 604.923 568.061 605.872C568.061 606.843 568.307 607.621 568.797 608.208C569.299 608.784 569.965 609.072 570.797 609.072C571.32 609.072 571.779 608.96 572.173 608.736C572.568 608.501 572.856 608.171 573.037 607.744H574.253C573.987 608.491 573.539 609.083 572.909 609.52C572.291 609.947 571.565 610.16 570.733 610.16ZM579.189 610.16C578.186 610.16 577.386 609.931 576.789 609.472C576.191 609.003 575.85 608.341 575.765 607.488H576.997C577.071 608.011 577.301 608.411 577.685 608.688C578.069 608.965 578.581 609.104 579.221 609.104C579.786 609.104 580.229 608.997 580.549 608.784C580.869 608.571 581.029 608.267 581.029 607.872C581.029 607.595 580.938 607.355 580.757 607.152C580.575 606.939 580.213 606.763 579.669 606.624L578.357 606.288C577.61 606.096 577.05 605.803 576.677 605.408C576.303 605.003 576.117 604.523 576.117 603.968C576.117 603.264 576.378 602.709 576.901 602.304C577.423 601.888 578.133 601.68 579.029 601.68C579.914 601.68 580.634 601.893 581.189 602.32C581.743 602.747 582.058 603.339 582.133 604.096H580.901C580.826 603.659 580.623 603.323 580.293 603.088C579.962 602.853 579.525 602.736 578.981 602.736C578.458 602.736 578.053 602.837 577.765 603.04C577.477 603.232 577.333 603.509 577.333 603.872C577.333 604.149 577.434 604.389 577.637 604.592C577.85 604.795 578.202 604.965 578.693 605.104L579.973 605.456C580.73 605.659 581.301 605.968 581.685 606.384C582.069 606.8 582.261 607.301 582.261 607.888C582.261 608.603 581.989 609.163 581.445 609.568C580.901 609.963 580.149 610.16 579.189 610.16ZM586.907 610.16C585.905 610.16 585.105 609.931 584.507 609.472C583.91 609.003 583.569 608.341 583.483 607.488H584.715C584.79 608.011 585.019 608.411 585.403 608.688C585.787 608.965 586.299 609.104 586.939 609.104C587.505 609.104 587.947 608.997 588.267 608.784C588.587 608.571 588.747 608.267 588.747 607.872C588.747 607.595 588.657 607.355 588.475 607.152C588.294 606.939 587.931 606.763 587.387 606.624L586.075 606.288C585.329 606.096 584.769 605.803 584.395 605.408C584.022 605.003 583.835 604.523 583.835 603.968C583.835 603.264 584.097 602.709 584.619 602.304C585.142 601.888 585.851 601.68 586.747 601.68C587.633 601.68 588.353 601.893 588.907 602.32C589.462 602.747 589.777 603.339 589.851 604.096H588.619C588.545 603.659 588.342 603.323 588.011 603.088C587.681 602.853 587.243 602.736 586.699 602.736C586.177 602.736 585.771 602.837 585.483 603.04C585.195 603.232 585.051 603.509 585.051 603.872C585.051 604.149 585.153 604.389 585.355 604.592C585.569 604.795 585.921 604.965 586.411 605.104L587.691 605.456C588.449 605.659 589.019 605.968 589.403 606.384C589.787 606.8 589.979 607.301 589.979 607.888C589.979 608.603 589.707 609.163 589.163 609.568C588.619 609.963 587.867 610.16 586.907 610.16ZM596.976 610C596.933 609.819 596.901 609.611 596.88 609.376C596.869 609.141 596.864 608.843 596.864 608.48H596.784V604.576C596.784 603.957 596.64 603.504 596.352 603.216C596.074 602.917 595.621 602.768 594.992 602.768C594.373 602.768 593.877 602.896 593.504 603.152C593.141 603.397 592.938 603.749 592.896 604.208H591.664C591.717 603.419 592.048 602.8 592.656 602.352C593.264 601.904 594.058 601.68 595.04 601.68C596.053 601.68 596.805 601.92 597.296 602.4C597.786 602.88 598.032 603.6 598.032 604.56V608.48C598.032 608.715 598.048 608.96 598.08 609.216C598.112 609.461 598.154 609.723 598.208 610H596.976ZM594.176 610.16C593.333 610.16 592.661 609.957 592.16 609.552C591.669 609.136 591.424 608.571 591.424 607.856C591.424 607.141 591.669 606.587 592.16 606.192C592.65 605.797 593.365 605.52 594.304 605.36L597.152 604.88V605.936L594.496 606.352C593.898 606.448 593.445 606.608 593.136 606.832C592.826 607.056 592.672 607.381 592.672 607.808C592.672 608.224 592.81 608.539 593.088 608.752C593.376 608.965 593.797 609.072 594.352 609.072C595.066 609.072 595.648 608.912 596.096 608.592C596.554 608.261 596.784 607.835 596.784 607.312L596.992 608.448C596.821 608.992 596.485 609.413 595.984 609.712C595.493 610.011 594.89 610.16 594.176 610.16ZM603.747 613.44C602.776 613.44 601.965 613.211 601.315 612.752C600.675 612.304 600.285 611.707 600.147 610.96H601.363C601.48 611.387 601.741 611.723 602.147 611.968C602.563 612.224 603.123 612.352 603.827 612.352C604.659 612.352 605.288 612.123 605.715 611.664C606.141 611.216 606.355 610.555 606.355 609.68V607.936L606.515 607.968C606.333 608.587 605.971 609.083 605.427 609.456C604.883 609.819 604.237 610 603.491 610C602.776 610 602.147 609.829 601.603 609.488C601.059 609.136 600.637 608.651 600.339 608.032C600.04 607.413 599.891 606.693 599.891 605.872C599.891 605.04 600.045 604.309 600.355 603.68C600.664 603.051 601.096 602.565 601.651 602.224C602.216 601.872 602.872 601.696 603.619 601.696C604.387 601.696 605.027 601.883 605.539 602.256C606.061 602.629 606.408 603.163 606.579 603.856L606.435 603.872V601.84H607.635V609.68C607.635 610.843 607.288 611.76 606.595 612.432C605.901 613.104 604.952 613.44 603.747 613.44ZM603.811 608.896C604.611 608.896 605.245 608.619 605.715 608.064C606.184 607.509 606.419 606.757 606.419 605.808C606.419 604.88 606.184 604.149 605.715 603.616C605.245 603.072 604.611 602.8 603.811 602.8C603 602.8 602.36 603.072 601.891 603.616C601.432 604.16 601.203 604.907 601.203 605.856C601.203 606.784 601.437 607.525 601.907 608.08C602.376 608.624 603.011 608.896 603.811 608.896ZM613.546 610.16C612.767 610.16 612.079 609.979 611.482 609.616C610.885 609.243 610.415 608.736 610.074 608.096C609.733 607.456 609.562 606.72 609.562 605.888C609.562 605.056 609.727 604.325 610.058 603.696C610.399 603.056 610.874 602.56 611.482 602.208C612.09 601.856 612.789 601.68 613.578 601.68C614.335 601.68 614.991 601.845 615.546 602.176C616.111 602.507 616.543 602.971 616.842 603.568C617.151 604.165 617.306 604.869 617.306 605.68C617.306 605.787 617.301 605.888 617.29 605.984C617.29 606.08 617.279 606.187 617.258 606.304H610.522V605.232H616.474L616.058 605.824C616.058 604.843 615.839 604.091 615.402 603.568C614.975 603.035 614.367 602.768 613.578 602.768C612.767 602.768 612.111 603.051 611.61 603.616C611.119 604.171 610.874 604.923 610.874 605.872C610.874 606.843 611.119 607.621 611.61 608.208C612.111 608.784 612.778 609.072 613.61 609.072C614.133 609.072 614.591 608.96 614.986 608.736C615.381 608.501 615.669 608.171 615.85 607.744H617.066C616.799 608.491 616.351 609.083 615.722 609.52C615.103 609.947 614.378 610.16 613.546 610.16ZM622.436 610V598.48H623.716V610H622.436ZM628.276 610V604.656C628.276 604.037 628.122 603.573 627.812 603.264C627.503 602.955 627.044 602.8 626.436 602.8C625.903 602.8 625.428 602.917 625.012 603.152C624.607 603.387 624.287 603.712 624.052 604.128C623.828 604.544 623.716 605.029 623.716 605.584L623.508 603.648C623.786 603.04 624.207 602.56 624.772 602.208C625.348 601.856 625.999 601.68 626.724 601.68C627.578 601.68 628.26 601.925 628.772 602.416C629.295 602.896 629.556 603.531 629.556 604.32V610H628.276ZM635.358 610.16C634.58 610.16 633.892 609.979 633.294 609.616C632.697 609.243 632.228 608.736 631.886 608.096C631.545 607.456 631.374 606.72 631.374 605.888C631.374 605.056 631.54 604.325 631.87 603.696C632.212 603.056 632.686 602.56 633.294 602.208C633.902 601.856 634.601 601.68 635.39 601.68C636.148 601.68 636.804 601.845 637.358 602.176C637.924 602.507 638.356 602.971 638.654 603.568C638.964 604.165 639.118 604.869 639.118 605.68C639.118 605.787 639.113 605.888 639.102 605.984C639.102 606.08 639.092 606.187 639.07 606.304H632.334V605.232H638.286L637.87 605.824C637.87 604.843 637.652 604.091 637.214 603.568C636.788 603.035 636.18 602.768 635.39 602.768C634.58 602.768 633.924 603.051 633.422 603.616C632.932 604.171 632.686 604.923 632.686 605.872C632.686 606.843 632.932 607.621 633.422 608.208C633.924 608.784 634.59 609.072 635.422 609.072C635.945 609.072 636.404 608.96 636.798 608.736C637.193 608.501 637.481 608.171 637.662 607.744H638.878C638.612 608.491 638.164 609.083 637.534 609.52C636.916 609.947 636.19 610.16 635.358 610.16ZM641.046 610V601.84H642.246V603.92H642.326V610H641.046ZM642.326 605.744L642.118 603.808C642.31 603.115 642.651 602.587 643.142 602.224C643.632 601.861 644.198 601.68 644.838 601.68C645.104 601.68 645.286 601.701 645.382 601.744V602.976C645.328 602.955 645.254 602.944 645.158 602.944C645.062 602.933 644.944 602.928 644.806 602.928C643.995 602.928 643.376 603.173 642.95 603.664C642.534 604.144 642.326 604.837 642.326 605.744ZM650.108 610.16C649.33 610.16 648.642 609.979 648.044 609.616C647.447 609.243 646.978 608.736 646.636 608.096C646.295 607.456 646.124 606.72 646.124 605.888C646.124 605.056 646.29 604.325 646.62 603.696C646.962 603.056 647.436 602.56 648.044 602.208C648.652 601.856 649.351 601.68 650.14 601.68C650.898 601.68 651.554 601.845 652.108 602.176C652.674 602.507 653.106 602.971 653.404 603.568C653.714 604.165 653.868 604.869 653.868 605.68C653.868 605.787 653.863 605.888 653.852 605.984C653.852 606.08 653.842 606.187 653.82 606.304H647.084V605.232H653.036L652.62 605.824C652.62 604.843 652.402 604.091 651.964 603.568C651.538 603.035 650.93 602.768 650.14 602.768C649.33 602.768 648.674 603.051 648.172 603.616C647.682 604.171 647.436 604.923 647.436 605.872C647.436 606.843 647.682 607.621 648.172 608.208C648.674 608.784 649.34 609.072 650.172 609.072C650.695 609.072 651.154 608.96 651.548 608.736C651.943 608.501 652.231 608.171 652.412 607.744H653.628C653.362 608.491 652.914 609.083 652.284 609.52C651.666 609.947 650.94 610.16 650.108 610.16ZM655.013 610V608.352H656.661V610H655.013ZM658.45 610V608.352H660.098V610H658.45ZM661.888 610V608.352H663.536V610H661.888Z" fill="black" fill-opacity="0.8"/>
<path fill-rule="evenodd" clip-rule="evenodd" d="M69.375 260.167C70.6176 260.167 71.625 261.211 71.625 262.5V271.833C71.625 273.122 70.6176 274.167 69.375 274.167H53.625C52.3824 274.167 51.375 273.122 51.375 271.833V262.5C51.375 261.211 52.3824 260.167 53.625 260.167H56.4375C57.0588 260.167 57.5625 259.644 57.5625 259C57.5625 258.356 58.0662 257.833 58.6875 257.833H64.3125C64.9338 257.833 65.4375 258.356 65.4375 259C65.4375 259.644 65.9412 260.167 66.5625 260.167H69.375ZM61.5 270.667C63.364 270.667 64.875 269.1 64.875 267.167C64.875 265.234 63.364 263.667 61.5 263.667C59.636 263.667 58.125 265.234 58.125 267.167C58.125 269.1 59.636 270.667 61.5 270.667Z" fill="black" fill-opacity="0.15"/>
<path d="M71.625 271.833V262.5C71.625 261.211 70.6176 260.167 69.375 260.167H66.5625C65.9412 260.167 65.4375 259.644 65.4375 259C65.4375 258.356 64.9338 257.833 64.3125 257.833H58.6875C58.0662 257.833 57.5625 258.356 57.5625 259C57.5625 259.644 57.0588 260.167 56.4375 260.167H53.625C52.3824 260.167 51.375 261.211 51.375 262.5V271.833C51.375 273.122 52.3824 274.167 53.625 274.167H69.375C70.6176 274.167 71.625 273.122 71.625 271.833Z" stroke="black" stroke-width="2" stroke-linecap="round" stroke-linejoin="round"/>
<path d="M64.875 267.167C64.875 269.1 63.364 270.667 61.5 270.667C59.636 270.667 58.125 269.1 58.125 267.167C58.125 265.234 59.636 263.667 61.5 263.667C63.364 263.667 64.875 265.234 64.875 267.167Z" stroke="black" stroke-width="2" stroke-linecap="round" stroke-linejoin="round"/>
</g>
<defs>
<filter id="filter0_d_40_2" x="13.6" y="6.6" width="352.8" height="686.8" filterUnits="userSpaceOnUse" color-interpolation-filters="sRGB">
<feFlood flood-opacity="0" result="BackgroundImageFix"/>
<feColorMatrix in="SourceAlpha" type="matrix" values="0 0 0 0 0 0 0 0 0 0 0 0 0 0 0 0 0 0 127 0" result="hardAlpha"/>
<feOffset dx="10" dy="1"/>
<feGaussianBlur stdDeviation="5.2"/>
<feComposite in2="hardAlpha" operator="out"/>
<feColorMatrix type="matrix" values="0 0 0 0 0.235294 0 0 0 0 0.164706 0 0 0 0 0.129412 0 0 0 0.29 0"/>
<feBlend mode="normal" in2="BackgroundImageFix" result="effect1_dropShadow_40_2"/>
<feBlend mode="normal" in="SourceGraphic" in2="effect1_dropShadow_40_2" result="shape"/>
</filter>
<filter id="filter1_d_40_2" x="1408" y="44" width="84" height="84" filterUnits="userSpaceOnUse" color-interpolation-filters="sRGB">
<feFlood flood-opacity="0" result="BackgroundImageFix"/>
<feColorMatrix in="SourceAlpha" type="matrix" values="0 0 0 0 0 0 0 0 0 0 0 0 0 0 0 0 0 0 127 0" result="hardAlpha"/>
<feOffset dx="5" dy="5"/>
<feGaussianBlur stdDeviation="2.5"/>
<feComposite in2="hardAlpha" operator="out"/>
<feColorMatrix type="matrix" values="0 0 0 0 0 0 0 0 0 0 0 0 0 0 0 0 0 0 0.05 0"/>
<feBlend mode="normal" in2="BackgroundImageFix" result="effect1_dropShadow_40_2"/>
<feBlend mode="normal" in="SourceGraphic" in2="effect1_dropShadow_40_2" result="shape"/>
</filter>
<filter id="filter2_d_40_2" x="1367.4" y="4.4" width="151.2" height="151.2" filterUnits="userSpaceOnUse" color-interpolation-filters="sRGB">
<feFlood flood-opacity="0" result="BackgroundImageFix"/>
<feColorMatrix in="SourceAlpha" type="matrix" values="0 0 0 0 0 0 0 0 0 0 0 0 0 0 0 0 0 0 127 0" result="hardAlpha"/>
<feMorphology radius="6" operator="erode" in="SourceAlpha" result="effect1_dropShadow_40_2"/>
<feOffset dx="-2" dy="-1"/>
<feGaussianBlur stdDeviation="22.3"/>
<feComposite in2="hardAlpha" operator="out"/>
<feColorMatrix type="matrix" values="0 0 0 0 0.235294 0 0 0 0 0.164706 0 0 0 0 0.129412 0 0 0 0.54 0"/>
<feBlend mode="normal" in2="BackgroundImageFix" result="effect1_dropShadow_40_2"/>
<feBlend mode="normal" in="SourceGraphic" in2="effect1_dropShadow_40_2" result="shape"/>
</filter>
<filter id="filter3_d_40_2" x="443.3" y="562.3" width="831.4" height="81.4" filterUnits="userSpaceOnUse" color-interpolation-filters="sRGB">
<feFlood flood-opacity="0" result="BackgroundImageFix"/>
<feColorMatrix in="SourceAlpha" type="matrix" values="0 0 0 0 0 0 0 0 0 0 0 0 0 0 0 0 0 0 127 0" result="hardAlpha"/>
<feMorphology radius="15" operator="erode" in="SourceAlpha" result="effect1_dropShadow_40_2"/>
<feOffset dx="-1" dy="-1"/>
<feGaussianBlur stdDeviation="11.35"/>
<feComposite in2="hardAlpha" operator="out"/>
<feColorMatrix type="matrix" values="0 0 0 0 0.101961 0 0 0 0 0.0705882 0 0 0 0 0.0431373 0 0 0 1 0"/>
<feBlend mode="normal" in2="BackgroundImageFix" result="effect1_dropShadow_40_2"/>
<feBlend mode="normal" in="SourceGraphic" in2="effect1_dropShadow_40_2" result="shape"/>
</filter>
<linearGradient id="paint0_linear_40_2" x1="1300" y1="636" x2="1471" y2="571" gradientUnits="userSpaceOnUse">
<stop stop-color="#3C2A21" stop-opacity="0.84"/>
<stop offset="1" stop-color="#3C2A21"/>
</linearGradient>
<clipPath id="clip0_40_2">
<rect width="1526" height="720" fill="white"/>
</clipPath>
<clipPath id="clip1_40_2">
<rect width="585.801" height="616.5" fill="white" transform="translate(607.242 118) rotate(1.69563)"/>
</clipPath>
<clipPath id="clip2_40_2">
<rect width="28" height="28" fill="white" transform="translate(43 188)"/>
</clipPath>
</defs>
</svg>
