<?xml version="1.0" encoding="UTF-8"?>
<svg version="1.1" xmlns="http://www.w3.org/2000/svg" width="500" height="500">
<path d="M0 0 C165 0 330 0 500 0 C500 165 500 330 500 500 C335 500 170 500 0 500 C0 335 0 170 0 0 Z " fill="#232323" transform="translate(0,0)"/>
<path d="M0 0 C165 0 330 0 500 0 C500 165 500 330 500 500 C335 500 170 500 0 500 C0 335 0 170 0 0 Z M43.25 47.3125 C33.64248123 60.34156437 30.53951084 73.53250456 30.61231995 89.47125244 C30.60813959 90.9096152 30.60265824 92.34797466 30.59600013 93.78632808 C30.58161844 97.71173192 30.58576732 101.6369245 30.59316695 105.56233954 C30.59791454 109.80652795 30.58537464 114.05067169 30.57514954 118.29484558 C30.55798636 126.59962026 30.5571165 134.9043192 30.56236244 143.20910701 C30.56641058 149.96310987 30.56495294 156.71709042 30.55961418 163.47109222 C30.55886576 164.43387206 30.55811734 165.3966519 30.55734624 166.38860689 C30.55581469 168.34477705 30.55427634 170.30094721 30.55273127 172.25711736 C30.5390148 190.58701765 30.54443756 208.91687522 30.55591648 227.24677452 C30.56584442 243.99398757 30.55291426 260.74109006 30.52898229 277.48828605 C30.50456338 294.70671716 30.4949905 311.92509684 30.50163502 329.14354491 C30.50512149 338.80135929 30.5029332 348.45908872 30.48538399 358.11688995 C30.47062692 366.33976968 30.47007205 374.56250465 30.4874549 382.78538164 C30.49593916 386.97565839 30.49817801 391.16567691 30.48280334 395.35593987 C30.46886844 399.20163281 30.47383082 403.04684848 30.49304258 406.89251444 C30.49852723 408.92189927 30.48460477 410.95130895 30.46968848 412.98064637 C30.57752926 426.59261109 33.74937577 438.37483248 41 450 C41.66 450 42.32 450 43 450 C43.25910156 450.74507813 43.51820312 451.49015625 43.78515625 452.2578125 C48.36510914 462.59584121 60.73899766 468.85644987 70.6875 472.875 C79.7728287 476.36136502 88.84742365 476.14706243 98.44732666 476.14044189 C99.81098856 476.14302906 101.1746497 476.1460432 102.53830981 476.1494453 C106.27099243 476.15747697 110.00365577 476.15930271 113.73634601 476.16004276 C117.76783429 476.16189998 121.79931274 476.16945054 125.83079529 476.17617798 C134.63869625 476.18973357 143.44659264 476.19578141 152.2545023 476.20018864 C157.75766915 476.20295521 163.26083426 476.20719326 168.76399994 476.21169281 C184.01147476 476.22388082 199.25894818 476.23418173 214.50642776 476.2375679 C215.48140738 476.23778747 216.45638699 476.23800703 217.46091144 476.23823325 C218.43816891 476.23845153 219.41542638 476.23866981 220.42229772 476.2388947 C222.4024628 476.23933816 224.38262789 476.23978472 226.36279297 476.24023438 C227.8361256 476.24056652 227.8361256 476.24056652 229.33922252 476.24090537 C245.25444969 476.24485337 261.16963108 476.26230953 277.08484057 476.2855939 C293.43869306 476.30932627 309.79252259 476.32177058 326.14639258 476.32293582 C335.3229241 476.32385141 344.49939591 476.32957462 353.67591095 476.34775543 C361.48939256 476.36318173 369.302796 476.3682619 377.11628994 476.36001733 C381.09956522 476.35612006 385.08268319 476.35699517 389.06593895 476.37107468 C392.71907409 476.38386881 396.37193462 476.38256824 400.02506968 476.37048396 C401.95839755 476.36762055 403.89173041 476.37942069 405.82502007 476.39190602 C423.00201525 476.29532129 436.66293277 470.58752459 450 460 C451.379122 458.37101931 452.71981951 456.70783297 454 455 C454.77537109 454.24396484 454.77537109 454.24396484 455.56640625 453.47265625 C466.7521322 441.98214213 469.30473221 425.28310469 469.26069641 410.08605957 C469.26371988 408.67162484 469.26761034 407.25719174 469.27228898 405.84276152 C469.28255331 401.96955639 469.28039111 398.09644399 469.27610838 394.22323132 C469.27363818 390.04033096 469.28265921 385.85745276 469.29014587 381.67456055 C469.30288869 373.48335324 469.30468692 365.29217872 469.30234561 357.10096318 C469.3005611 350.43843443 469.30231497 343.77591562 469.30657005 337.11338806 C469.30746284 335.68985689 469.30746284 335.68985689 469.30837366 334.23756751 C469.30958545 332.30942348 469.31079958 330.38127946 469.31201603 328.45313543 C469.32289088 310.37264184 469.32072989 292.29216689 469.31463119 274.21167225 C469.30946739 257.69452468 469.32070337 241.17743619 469.33972941 224.66030031 C469.35913515 207.6826579 469.36735867 190.70504339 469.36360615 173.72738981 C469.36169758 164.2030922 469.36414768 154.67884481 469.37832069 145.15455627 C469.3902707 137.04218031 469.39159931 128.92988543 469.37953053 120.81750828 C469.3736659 116.68387391 469.37247473 112.55038757 469.38453293 108.41676331 C469.39547446 104.62155052 469.39219159 100.82660788 469.37827124 97.0314073 C469.37441765 95.03145116 469.38510375 93.03148264 469.39656812 91.03155565 C469.2814249 71.45562775 464.79501287 54.72128844 450.7109375 40.57421875 C443.48738261 33.53638655 443.48738261 33.53638655 434 31 C434 30.34 434 29.68 434 29 C418.29822247 22.98140094 402.44229349 23.28326479 385.8786869 23.3610357 C381.82140529 23.3745491 377.76421258 23.35892342 373.7069397 23.34721375 C365.78373198 23.32893776 357.86077263 23.33728092 349.93757293 23.35530197 C343.49455049 23.36938513 337.05159501 23.37320855 330.60855865 23.3698597 C329.68806894 23.36938225 328.76757922 23.36890481 327.81919588 23.3684129 C325.94870572 23.36738648 324.07821557 23.36633111 322.20772544 23.36524714 C305.70874672 23.3567009 289.2098872 23.37328952 272.7109375 23.40307617 C256.72976683 23.43192731 240.74876771 23.4389855 224.76757812 23.42358398 C207.32575236 23.40679762 189.88400783 23.40281097 172.44217992 23.42029434 C170.58017938 23.42213857 168.71817884 23.4239733 166.85617828 23.42579842 C165.9402452 23.42671051 165.02431212 23.4276226 164.08062349 23.42856232 C157.64889641 23.43415114 151.21720922 23.43087621 144.78548431 23.42425346 C136.94261263 23.41649749 129.09990936 23.42335463 121.25707147 23.4484285 C117.26130225 23.46086905 113.26579453 23.46713667 109.27001572 23.45588684 C105.603503 23.44575936 101.93750894 23.45448208 98.27105871 23.47746802 C96.33572561 23.48497423 94.40034629 23.47315863 92.46504092 23.46036428 C72.36525325 23.6485111 55.98806756 31.89273401 43.25 47.3125 Z " fill="#FEFEFE" transform="translate(0,0)"/>
<path d="M0 0 C1.5778125 0.55300781 1.5778125 0.55300781 3.1875 1.1171875 C4.1775 1.47039062 5.1675 1.82359375 6.1875 2.1875 C7.62349717 2.67115182 9.060873 3.15074224 10.5 3.625 C34.6875 11.6875 34.6875 11.6875 36.7421875 12.375 C38.76628583 13.04754385 40.79297027 13.71229888 42.8203125 14.375 C44.15104697 14.81248386 45.48177611 15.24998395 46.8125 15.6875 C48.65714844 16.29078125 48.65714844 16.29078125 50.5390625 16.90625 C54.1875 18.1875 54.1875 18.1875 57.625 19.6875 C61.54903178 21.33972391 65.47077653 22.53655914 69.5625 23.6875 C71.07845182 24.12386623 72.59408135 24.56135375 74.109375 25 C75.17961914 25.309375 75.17961914 25.309375 76.27148438 25.625 C79.94802064 26.7043501 83.56421969 27.94386584 87.1875 29.1875 C89.68696376 30.0224857 92.18693973 30.85581451 94.6875 31.6875 C96.00003216 32.12490351 97.31253296 32.56240115 98.625 33 C99.800625 33.391875 100.97625 33.78375 102.1875 34.1875 C107.0234375 35.79947917 111.859375 37.41145833 116.6953125 39.0234375 C117.35273438 39.24257812 118.01015625 39.46171875 118.6875 39.6875 C120.65625 40.34375 120.65625 40.34375 122.625 41 C123.800625 41.391875 124.97625 41.78375 126.1875 42.1875 C130.6875 43.6875 130.6875 43.6875 132.74609375 44.37890625 C134.7552492 45.04433854 136.76954346 45.69423487 138.78515625 46.33984375 C155.8415711 51.8415711 155.8415711 51.8415711 160.1875 56.1875 C160.125 59.625 160.125 59.625 159.1875 63.1875 C155.35759726 66.04237934 150.98602233 67.46016356 146.5 68.96484375 C145.76104492 69.21746475 145.02208984 69.47008575 144.26074219 69.73036194 C142.69834777 70.26329262 141.1350106 70.79346643 139.57080078 71.32104492 C137.22092808 72.11372376 134.87392548 72.91443484 132.52734375 73.71679688 C124.69974244 76.38358267 116.85852549 78.95954933 108.93554688 81.33032227 C106.15024215 82.19912156 103.42154424 83.16975132 100.6875 84.1875 C96.98667622 85.56013079 93.27943012 86.79917759 89.5 87.9375 C83.25385434 89.82758663 77.06386612 91.86795108 70.875 93.9375 C69.84930908 94.28047119 68.82361816 94.62344238 67.7668457 94.97680664 C63.51404239 96.40053838 59.26214746 97.82697204 55.01025391 99.25341797 C51.90310145 100.29524209 48.79547364 101.33562831 45.6875 102.375 C44.68356201 102.71096191 43.67962402 103.04692383 42.64526367 103.39306641 C37.01278 105.27040599 31.36618585 107.08050081 25.6875 108.8125 C19.61027449 110.67998075 13.67596248 112.80289791 7.76367188 115.13330078 C-3.76419321 119.61534927 -11.54910791 119.5672815 -23.25 115.875 C-24.26126953 115.56626953 -25.27253906 115.25753906 -26.31445312 114.93945312 C-30.45434007 113.65670929 -34.54259405 112.38053142 -38.50390625 110.61328125 C-42.37006628 108.94722645 -46.26245944 107.81049872 -50.3125 106.6875 C-55.69095475 105.19615745 -60.68234552 103.42123096 -65.8125 101.1875 C-68.6681227 100.14852767 -71.55006397 99.19641491 -74.4375 98.25 C-75.21859131 97.99057617 -75.99968262 97.73115234 -76.80444336 97.46386719 C-82.66848205 95.52778077 -88.56412354 93.73759967 -94.50390625 92.046875 C-96.8125 91.1875 -96.8125 91.1875 -97.8125 89.1875 C-94.04346253 87.59986838 -90.2719453 86.01820927 -86.5 84.4375 C-85.44748047 83.9940625 -84.39496094 83.550625 -83.31054688 83.09375 C-77.35161779 80.60016737 -71.37648589 78.24480818 -65.27929688 76.10986328 C-62.66151403 75.13104464 -60.15317373 74.00230288 -57.625 72.8125 C-51.19388528 69.82532029 -44.57050012 67.40681474 -37.91943359 64.96679688 C-35.80182139 64.18355028 -33.69121862 63.38376142 -31.58203125 62.578125 C-12.20966973 55.1875 -12.20966973 55.1875 -5.8125 55.1875 C-5.8125 54.5275 -5.8125 53.8675 -5.8125 53.1875 C-5.1525 52.65125 -4.4925 52.115 -3.8125 51.5625 C-0.8779891 48.0777683 -1.51486849 45.65197272 -1.8125 41.1875 C-9.19217094 38.72760969 -15.85385568 40.48096349 -22.875 43 C-23.63876953 43.26103516 -24.40253906 43.52207031 -25.18945312 43.79101562 C-28.68273107 45.00126162 -32.11542269 46.28641445 -35.50390625 47.765625 C-39.45066394 49.46175227 -43.46107126 50.73902583 -47.5546875 52.02734375 C-50.87743392 53.21062395 -54.0314356 54.6047901 -57.24267578 56.05688477 C-63.27631657 58.7114345 -69.44471612 61.05412433 -75.57421875 63.4765625 C-80.98572924 65.62534742 -86.35724067 67.82095968 -91.66357422 70.21826172 C-93.92984686 71.24042741 -96.20740587 72.23353724 -98.48828125 73.22265625 C-99.25333984 73.55716797 -100.01839844 73.89167969 -100.80664062 74.23632812 C-102.37004883 74.91990762 -103.93520063 75.59951137 -105.50195312 76.27539062 C-109.30358447 77.94526607 -112.54025277 79.59394108 -115.8125 82.1875 C-116.4725 82.1875 -117.1325 82.1875 -117.8125 82.1875 C-117.8125 82.8475 -117.8125 83.5075 -117.8125 84.1875 C-119.28286843 85.39052871 -120.7535786 86.59314383 -122.2265625 87.79296875 C-130.23156737 94.83185235 -132.00644549 106.6406523 -133.375 116.6875 C-133.55796631 117.85394043 -133.55796631 117.85394043 -133.74462891 119.04394531 C-134.09731423 121.55380949 -134.09731423 121.55380949 -133.8125 125.1875 C-131.53780791 127.54801735 -131.53780791 127.54801735 -128.8125 129.1875 C-126.06506079 133.73530893 -124.97363134 138.96787277 -125.8125 144.1875 C-127.16015625 146.0859375 -127.16015625 146.0859375 -128.8125 148.0625 C-131.80521892 151.71009624 -132.41709027 154.05456238 -132.12109375 158.71875 C-131.88031388 160.64498899 -131.59852071 162.56611464 -131.30078125 164.484375 C-130.53744146 170.56279524 -130.58914005 176.68673225 -130.57226562 182.80371094 C-130.56258456 184.91902379 -130.53149498 187.03335249 -130.5 189.1484375 C-130.39466216 202.46977302 -132.43458707 214.41589766 -140.8125 225.1875 C-145.88328664 229.89030503 -150.71484774 233.80263361 -157.8125 234.1875 C-163.4820047 233.06547928 -168.1524336 230.63289911 -173.125 227.8125 C-173.83978516 227.42578125 -174.55457031 227.0390625 -175.29101562 226.640625 C-175.97486328 226.25648438 -176.65871094 225.87234375 -177.36328125 225.4765625 C-177.97856689 225.13318848 -178.59385254 224.78981445 -179.2277832 224.43603516 C-181.15102519 222.9207895 -181.86896967 221.42107975 -182.8125 219.1875 C-182.10673828 218.39085937 -182.10673828 218.39085937 -181.38671875 217.578125 C-180.76410156 216.87171875 -180.14148438 216.1653125 -179.5 215.4375 C-178.88511719 214.74140625 -178.27023438 214.0453125 -177.63671875 213.328125 C-175.78333835 211.21771317 -175.78333835 211.21771317 -174.20703125 208.921875 C-173.74683594 208.34953125 -173.28664063 207.7771875 -172.8125 207.1875 C-172.1525 207.1875 -171.4925 207.1875 -170.8125 207.1875 C-170.40257812 206.07568359 -170.40257812 206.07568359 -169.984375 204.94140625 C-168.88823824 202.36548486 -167.68610467 200.39019039 -166.0625 198.125 C-156.84057521 184.44956031 -153.40427366 170.28377851 -150.8125 154.1875 C-151.60011719 153.89746094 -152.38773438 153.60742188 -153.19921875 153.30859375 C-156.17283379 152.03291734 -157.21322528 150.96518767 -158.8125 148.1875 C-158.8125 147.1975 -158.8125 146.2075 -158.8125 145.1875 C-159.4725 145.1875 -160.1325 145.1875 -160.8125 145.1875 C-161.40325916 139.23614846 -161.69426765 134.57805514 -158 129.625 C-156.01828289 127.27140511 -154.41761212 125.92424142 -151.8125 124.1875 C-151.01475437 121.80357797 -151.01475437 121.80357797 -150.6015625 118.98046875 C-150.41142578 117.92472656 -150.22128906 116.86898437 -150.02539062 115.78125 C-149.83138672 114.6571875 -149.63738281 113.533125 -149.4375 112.375 C-147.03662181 99.48761132 -143.66442515 88.47130865 -136.8125 77.1875 C-137.48667969 77.06761719 -138.16085938 76.94773437 -138.85546875 76.82421875 C-148.29044871 74.79264446 -157.55224867 71.3844274 -166.625 68.125 C-167.30022705 67.89208252 -167.9754541 67.65916504 -168.67114258 67.41918945 C-172.46547467 66.02061425 -174.90834118 64.8395061 -176.8125 61.1875 C-176.74710073 57.98293562 -176.65550673 56.01294409 -174.3125 53.71875 C-170.6955232 51.50335171 -166.85991539 50.17089581 -162.875 48.75 C-162.02615234 48.44215576 -161.17730469 48.13431152 -160.30273438 47.81713867 C-154.4908555 45.73007581 -148.63932386 43.83876718 -142.71875 42.08203125 C-139.87546776 41.2068812 -137.10024179 40.22489242 -134.3125 39.1875 C-129.26610031 37.30976988 -124.15335048 35.74322845 -119 34.1875 C-116.06666326 33.26723749 -113.19326213 32.25941149 -110.3125 31.1875 C-105.26610031 29.30976988 -100.15335048 27.74322845 -95 26.1875 C-92.06666326 25.26723749 -89.19326213 24.25941149 -86.3125 23.1875 C-81.26610031 21.30976988 -76.15335048 19.74322845 -71 18.1875 C-68.06666326 17.26723749 -65.19326213 16.25941149 -62.3125 15.1875 C-57.26610031 13.30976988 -52.15335048 11.74322845 -47 10.1875 C-43.16038573 8.98291513 -39.40700588 7.59494379 -35.63671875 6.19140625 C-31.41238514 4.68981049 -27.121798 3.42380319 -22.828125 2.13671875 C-20.28355302 1.33577187 -17.84387854 0.44107086 -15.375 -0.5625 C-9.72425559 -2.54521734 -5.56811825 -1.99021094 0 0 Z " fill="#FCFCFC" transform="translate(261.8125,110.8125)"/>
<path d="M0 0 C0.17837281 7.36453796 0.30044326 14.72851339 0.38452148 22.09472656 C0.41959255 24.59721696 0.46726374 27.09956529 0.52807617 29.6015625 C0.6135774 33.21129509 0.65282447 36.81912247 0.68359375 40.4296875 C0.71972275 41.53738495 0.75585175 42.6450824 0.79307556 43.78634644 C0.79785705 53.37564904 -2.93103103 58.82226928 -9.484375 65.55078125 C-15.34913542 70.11113806 -21.08640131 73.30681666 -28 76 C-28.67708008 76.27199219 -29.35416016 76.54398437 -30.05175781 76.82421875 C-41.50698349 81.40430898 -52.84479617 84.88221494 -65 87 C-65.81839355 87.14953125 -66.63678711 87.2990625 -67.47998047 87.453125 C-104.65423691 93.98554499 -146.94832812 92.35292789 -182.09765625 78.1484375 C-184.06182785 77.37122828 -186.05440396 76.66285937 -188.06640625 76.01953125 C-196.18962721 73.19641451 -202.81617801 67.83835707 -209 62 C-208.17243116 58.00008392 -206.26023251 55.39034877 -204 52 C-201.59795274 44.60789327 -202.31928925 36.87353403 -205.7890625 30.0078125 C-208.28521563 25.86902957 -210.93397696 22.71068203 -215 20 C-216.1208822 13.62422919 -214.61017919 7.16152907 -213 1 C-204.84418403 2.5848638 -197.09698362 5.19767928 -189.25 7.875 C-186.67269614 8.74983495 -184.09446872 9.62190275 -181.515625 10.4921875 C-180.8835463 10.70575897 -180.25146759 10.91933044 -179.60023499 11.13937378 C-174.4112236 12.88325026 -169.18882164 14.5011582 -163.95166016 16.09326172 C-159.79857727 17.36907229 -155.67914634 18.73687126 -151.5625 20.125 C-150.81291016 20.37636719 -150.06332031 20.62773437 -149.29101562 20.88671875 C-147.83980667 21.37342799 -146.38878832 21.86070603 -144.93798828 22.34863281 C-142.29364796 23.23740832 -139.64688777 24.11884252 -137 25 C-135.5624829 25.47911537 -134.12498447 25.95828675 -132.6875 26.4375 C-131.92179687 26.69273437 -131.15609375 26.94796875 -130.3671875 27.2109375 C-128.015625 27.99479167 -125.6640625 28.77864583 -123.3125 29.5625 C-122.57209473 29.80798584 -121.83168945 30.05347168 -121.06884766 30.30639648 C-119.27702208 30.90712536 -117.49316025 31.53150998 -115.7109375 32.16015625 C-106.49131059 35.01638072 -97.9704678 31.76726961 -89.22216797 28.76171875 C-86.91493822 27.97084237 -84.60132035 27.20179138 -82.28515625 26.4375 C-78.56695915 25.20900403 -74.85324675 23.96785421 -71.1418457 22.71899414 C-68.91371483 21.97103501 -66.6835484 21.22937355 -64.453125 20.48828125 C-61.6229622 19.54642264 -58.79903415 18.58927463 -55.98046875 17.61328125 C-55.35076172 17.39736328 -54.72105469 17.18144531 -54.07226562 16.95898438 C-52.79467561 16.52076438 -51.51866922 16.07790508 -50.24414062 15.63085938 C-46.92691651 14.50224848 -44.5574946 14 -41 14 C-41 13.34 -41 12.68 -41 12 C-37.75274421 10.99093539 -34.50178926 9.99434878 -31.25 9 C-30.32960938 8.71382812 -29.40921875 8.42765625 -28.4609375 8.1328125 C-27.57148438 7.86210937 -26.68203125 7.59140625 -25.765625 7.3125 C-24.94868164 7.06113281 -24.13173828 6.80976563 -23.29003906 6.55078125 C-21 6 -21 6 -17 6 C-17 5.34 -17 4.68 -17 4 C-14.91891315 3.32635339 -12.8350329 2.66133202 -10.75 2 C-9.58984375 1.62875 -8.4296875 1.2575 -7.234375 0.875 C-4 0 -4 0 0 0 Z " fill="#FDFDFD" transform="translate(361,214)"/>
<path d="M0 0 C1.32 0 2.64 0 4 0 C4.029729 1.89274658 4.029729 1.89274658 4.06005859 3.82373047 C4.13598765 8.49418492 4.22472412 13.1643226 4.31738281 17.83447266 C4.35572521 19.85784666 4.39056871 21.88129006 4.421875 23.90478516 C4.46741169 26.80917203 4.52542409 29.71307894 4.5859375 32.6171875 C4.59748871 33.52556366 4.60903992 34.43393982 4.62094116 35.36984253 C4.64081085 36.21056305 4.66068054 37.05128357 4.68115234 37.91748047 C4.69447601 38.65916473 4.70779968 39.400849 4.7215271 40.16500854 C4.85199729 42.2473364 4.85199729 42.2473364 7 44 C9.57061311 44.64767793 9.57061311 44.64767793 12 45 C12 45.99 12 46.98 12 48 C8.6875 48.25 8.6875 48.25 5 48 C3.0625 46.125 3.0625 46.125 2 44 C2 43.34 2 42.68 2 42 C1.566875 42.474375 1.13375 42.94875 0.6875 43.4375 C-1 45 -1 45 -4 46 C-4.33 45.34 -4.66 44.68 -5 44 C-8.53588371 43.58401368 -9.73106269 43.79509538 -12.625 46 C-17.39662634 48.82763042 -21.57405025 48.69934463 -27 48 C-30.6875 46.5 -30.6875 46.5 -33 45 C-33 44.34 -33 43.68 -33 43 C-33.99 42.67 -34.98 42.34 -36 42 C-39.24777007 37.22826582 -38.36864686 31.28358096 -38.375 25.75 C-38.39949219 24.64269531 -38.42398438 23.53539062 -38.44921875 22.39453125 C-38.47399528 15.44884424 -37.78143846 10.87917075 -34 5 C-29.79298507 1.79465529 -25.67468733 1.48943204 -20.53515625 1.63671875 C-15.30802657 2.38575274 -11.31593008 5.12271328 -7 8 C-6.34 6.02 -5.68 4.04 -5 2 C-4.01 2 -3.02 2 -2 2 C-1.34 1.34 -0.68 0.68 0 0 Z " fill="#252525" transform="translate(171,358)"/>
<path d="M0 0 C18 0 18 0 25 4 C26.84231639 7.68463278 26.36066861 11.96937006 26 16 C24.6875 19.125 24.6875 19.125 23 21 C22.01 21 21.02 21 20 21 C20 21.66 20 22.32 20 23 C20.928125 23.226875 21.85625 23.45375 22.8125 23.6875 C26 25 26 25 27.9375 27 C29.50937477 31.43823466 28.73818962 35.41966684 28 40 C27.34 40 26.68 40 26 40 C25.7525 40.61875 25.505 41.2375 25.25 41.875 C24 44 24 44 20 46 C13.4 46 6.8 46 0 46 C0 30.82 0 15.64 0 0 Z " fill="#333333" transform="translate(284,360)"/>
<path d="M0 0 C3.61884168 1.89662185 5.68786858 4.06360575 7 8 C7.14715199 9.62567079 7.24721867 11.25586857 7.31640625 12.88671875 C7.35830078 13.82451172 7.40019531 14.76230469 7.44335938 15.72851562 C7.48267578 16.70498047 7.52199219 17.68144531 7.5625 18.6875 C7.60568359 19.67556641 7.64886719 20.66363281 7.69335938 21.68164062 C7.79941654 24.12095546 7.90147714 26.56037113 8 29 C8.66 29.33 9.32 29.66 10 30 C10 30.99 10 31.98 10 33 C8.35 32.67 6.7 32.34 5 32 C4.67 31.01 4.34 30.02 4 29 C2.989375 29.66 1.97875 30.32 0.9375 31 C-2.85919327 33.13995439 -5.60606277 33.73232287 -10 33 C-13.25335561 30.39731551 -15.5287621 27.8906069 -17 24 C-17.19235855 21.30980915 -17.27938146 18.74845545 -17.25 16.0625 C-17.25773438 15.35931641 -17.26546875 14.65613281 -17.2734375 13.93164062 C-17.25815539 9.85513855 -16.90699207 6.62597084 -15 3 C-10.74615946 -0.85504299 -5.44368009 -0.94786123 0 0 Z " fill="#272727" transform="translate(208,373)"/>
<path d="M0 0 C1.50433594 0.01353516 1.50433594 0.01353516 3.0390625 0.02734375 C3.80992187 0.03894531 4.58078125 0.05054688 5.375 0.0625 C5.375 0.7225 5.375 1.3825 5.375 2.0625 C5.99375 2.35125 6.6125 2.64 7.25 2.9375 C9.375 4.0625 9.375 4.0625 11.375 6.0625 C11.84903036 9.12338176 11.74537601 12.21905247 11.75 15.3125 C11.77449219 16.15941406 11.79898437 17.00632812 11.82421875 17.87890625 C11.85015576 23.43807257 11.12189317 26.67960282 7.375 31.0625 C3.42773196 33.47471936 -1.10568143 33.82941467 -5.625 33.0625 C-8.4350346 31.26886089 -10.13440468 30.04369065 -11.625 27.0625 C-11.91759649 23.6316548 -11.90291989 20.19187345 -11.9375 16.75 C-11.96650391 15.79931641 -11.99550781 14.84863281 -12.02539062 13.86914062 C-12.06576288 9.42508682 -12.0861984 6.81848501 -9.73046875 2.95703125 C-6.37384492 -0.06330745 -4.43388136 -0.05155676 0 0 Z " fill="#292929" transform="translate(330.625,372.9375)"/>
<path d="M0 0 C18 0 18 0 25 4 C26.84231639 7.68463278 26.36066861 11.96937006 26 16 C24.6875 19.125 24.6875 19.125 23 21 C22.01 21 21.02 21 20 21 C20 21.66 20 22.32 20 23 C20.928125 23.226875 21.85625 23.45375 22.8125 23.6875 C26 25 26 25 27.9375 27 C29.50937477 31.43823466 28.73818962 35.41966684 28 40 C27.34 40 26.68 40 26 40 C25.7525 40.61875 25.505 41.2375 25.25 41.875 C24 44 24 44 20 46 C13.4 46 6.8 46 0 46 C0 30.82 0 15.64 0 0 Z M3 3 C3 16.2 3 29.4 3 43 C14.62251004 43.68823111 14.62251004 43.68823111 24 40 C25.57455739 36.85088521 25.34799118 34.47991184 25 31 C22.99707521 27.52001484 20.87946651 25.2931555 17 24 C15.10529184 23.9314505 13.2083166 23.91519628 11.3125 23.9375 C10.31863281 23.94652344 9.32476562 23.95554687 8.30078125 23.96484375 C7.54152344 23.97644531 6.78226562 23.98804688 6 24 C6 23.01 6 22.02 6 21 C6.80824219 20.97421875 7.61648438 20.9484375 8.44921875 20.921875 C15.0610428 20.57885018 15.0610428 20.57885018 21.25 18.4375 C23.82682134 14.84835598 23.36260187 12.35122242 23 8 C22.34 8 21.68 8 21 8 C20.67 7.01 20.34 6.02 20 5 C14.20630696 2.10315348 9.97458918 3 3 3 Z " fill="#ECECEC" transform="translate(284,360)"/>
<path d="M0 0 C3.69554708 2.11708466 5.73237419 4.51088897 7.625 8.375 C7.875 11.25 7.875 11.25 7.625 13.375 C6.305 13.375 4.985 13.375 3.625 13.375 C3.2846875 11.7353125 3.2846875 11.7353125 2.9375 10.0625 C1.98548835 6.33674265 1.98548835 6.33674265 -0.578125 4.671875 C-3.74813368 3.20198271 -5.95573324 2.94190173 -9.4375 2.9375 C-10.45972656 2.91816406 -11.48195312 2.89882813 -12.53515625 2.87890625 C-16.05985911 3.49463839 -17.19536419 4.59130807 -19.375 7.375 C-20.89593434 11.93780301 -20.60039483 16.47044568 -20.625 21.25 C-20.645625 22.24386719 -20.66625 23.23773438 -20.6875 24.26171875 C-20.83035314 31.36974477 -20.83035314 31.36974477 -17.375 37.375 C-14.2876483 39.54661179 -11.59234933 39.645425 -7.875 39.625 C-6.46734375 39.63273437 -6.46734375 39.63273437 -5.03125 39.640625 C-2.23688189 39.36118819 -0.63849754 39.03693738 1.625 37.375 C2.53660093 35.20291412 2.53660093 35.20291412 2.875 32.75 C3.02453125 31.93273437 3.1740625 31.11546875 3.328125 30.2734375 C3.42609375 29.64695312 3.5240625 29.02046875 3.625 28.375 C4.945 28.045 6.265 27.715 7.625 27.375 C7.9747368 32.27131522 7.33974078 35.25910269 4.625 39.375 C1.77225643 42.4715678 -0.87067203 44.14356493 -5.06640625 44.7890625 C-10.56666781 44.95369618 -14.64708959 44.4417527 -19.375 41.375 C-19.375 40.715 -19.375 40.055 -19.375 39.375 C-20.365 39.045 -21.355 38.715 -22.375 38.375 C-25.62277007 33.60326582 -24.74364686 27.65858096 -24.75 22.125 C-24.77449219 21.01769531 -24.79898438 19.91039062 -24.82421875 18.76953125 C-24.84899528 11.82384424 -24.15643846 7.25417075 -20.375 1.375 C-14.49514456 -3.10488986 -6.59611465 -2.94117799 0 0 Z " fill="#EBEBEB" transform="translate(157.375,361.625)"/>
<path d="M0 0 C0.99 0.495 0.99 0.495 2 1 C3.76856576 1.15378833 5.54012052 1.27426937 7.3125 1.375 C12.78417008 1.83991314 15.83642569 2.9110317 19.8125 6.75 C21.51693294 9.97945188 21.39171267 12.40930054 21 16 C19.45737187 18.10358381 18.31891683 18.84054159 16 20 C13.28024285 20.07187519 10.59325368 20.0927862 7.875 20.0625 C5.27625 20.041875 2.6775 20.02125 0 20 C0 13.4 0 6.8 0 0 Z " fill="#252525" transform="translate(288,382)"/>
<path d="M0 0 C3.61884168 1.89662185 5.68786858 4.06360575 7 8 C7.14715199 9.62567079 7.24721867 11.25586857 7.31640625 12.88671875 C7.35830078 13.82451172 7.40019531 14.76230469 7.44335938 15.72851562 C7.48267578 16.70498047 7.52199219 17.68144531 7.5625 18.6875 C7.60568359 19.67556641 7.64886719 20.66363281 7.69335938 21.68164062 C7.79941654 24.12095546 7.90147714 26.56037113 8 29 C8.66 29.33 9.32 29.66 10 30 C10 30.99 10 31.98 10 33 C8.35 32.67 6.7 32.34 5 32 C4.67 31.01 4.34 30.02 4 29 C2.989375 29.66 1.97875 30.32 0.9375 31 C-2.85919327 33.13995439 -5.60606277 33.73232287 -10 33 C-13.25335561 30.39731551 -15.5287621 27.8906069 -17 24 C-17.19235855 21.30980915 -17.27938146 18.74845545 -17.25 16.0625 C-17.25773438 15.35931641 -17.26546875 14.65613281 -17.2734375 13.93164062 C-17.25815539 9.85513855 -16.90699207 6.62597084 -15 3 C-10.74615946 -0.85504299 -5.44368009 -0.94786123 0 0 Z M-11.1875 4.40234375 C-13.99143284 8.4209113 -13.54279747 12.28335339 -13.4375 17.0625 C-13.44458984 17.97322266 -13.45167969 18.88394531 -13.45898438 19.82226562 C-13.62967451 24.6272101 -13.62967451 24.6272101 -11.60058594 28.76464844 C-9.54300717 30.35271258 -8.37845522 30.31369452 -5.8125 30.1875 C-4.554375 30.125625 -3.29625 30.06375 -2 30 C-2 29.34 -2 28.68 -2 28 C-1.34 28 -0.68 28 0 28 C0 27.34 0 26.68 0 26 C0.99 26 1.98 26 3 26 C3.14554346 22.91716557 3.23413821 19.83521561 3.3125 16.75 C3.35439453 15.87730469 3.39628906 15.00460937 3.43945312 14.10546875 C3.60172632 8.76139799 3.60172632 8.76139799 0.703125 4.421875 C-3.48513529 2.21880167 -7.100369 1.78220084 -11.1875 4.40234375 Z " fill="#DDDDDD" transform="translate(208,373)"/>
<path d="M0 0 C4.51315789 2.02631579 4.51315789 2.02631579 6 5 C6.039992 6.99960012 6.04346799 9.00047242 6 11 C5.01 11 4.02 11 3 11 C2.54625 10.030625 2.0925 9.06125 1.625 8.0625 C0.34213779 4.92920418 0.34213779 4.92920418 -2 4 C-6.14503661 3.75212983 -6.14503661 3.75212983 -10 5 C-10 7.31 -10 9.62 -10 12 C-9.18015625 12.32613281 -8.3603125 12.65226562 -7.515625 12.98828125 C-6.43796875 13.42527344 -5.3603125 13.86226563 -4.25 14.3125 C-2.64898437 14.95638672 -2.64898437 14.95638672 -1.015625 15.61328125 C1.70500351 16.86434747 3.82366326 17.95320712 6 20 C6.62789119 24.23826551 6.48189098 26.26110049 4.125 29.875 C1.12611304 32.87388696 -0.66704863 33.21340819 -4.8125 33.375 C-8.89393784 33.35730591 -9.7208633 33.22217002 -13.0625 30.5625 C-13.701875 29.716875 -14.34125 28.87125 -15 28 C-15.33 27.67 -15.66 27.34 -16 27 C-16.04080783 25.00041636 -16.04254356 22.99954746 -16 21 C-15.01 21 -14.02 21 -13 21 C-12.01 23.31 -11.02 25.62 -10 28 C-8.37509046 28.02698189 -6.75005367 28.04638757 -5.125 28.0625 C-4.22007812 28.07410156 -3.31515625 28.08570313 -2.3828125 28.09765625 C0.0168585 28.16249257 0.0168585 28.16249257 2 27 C2.65772428 23.97065509 2.65772428 23.97065509 3 21 C2.11957031 20.84144531 1.23914063 20.68289063 0.33203125 20.51953125 C-9.03381643 18.63804576 -9.03381643 18.63804576 -13.3125 15.8125 C-15.6716321 11.88061317 -15.44675288 9.54198766 -15 5 C-14.67 4.34 -14.34 3.68 -14 3 C-13.34 3 -12.68 3 -12 3 C-12 2.34 -12 1.68 -12 1 C-8.31833802 -0.84083099 -4.02754194 -0.36729156 0 0 Z " fill="#F0F0F0" transform="translate(240,373)"/>
<path d="M0 0 C1.50433594 0.01353516 1.50433594 0.01353516 3.0390625 0.02734375 C3.80992187 0.03894531 4.58078125 0.05054688 5.375 0.0625 C5.375 0.7225 5.375 1.3825 5.375 2.0625 C5.99375 2.35125 6.6125 2.64 7.25 2.9375 C9.375 4.0625 9.375 4.0625 11.375 6.0625 C11.84903036 9.12338176 11.74537601 12.21905247 11.75 15.3125 C11.77449219 16.15941406 11.79898437 17.00632812 11.82421875 17.87890625 C11.85015576 23.43807257 11.12189317 26.67960282 7.375 31.0625 C3.42773196 33.47471936 -1.10568143 33.82941467 -5.625 33.0625 C-8.4350346 31.26886089 -10.13440468 30.04369065 -11.625 27.0625 C-11.91759649 23.6316548 -11.90291989 20.19187345 -11.9375 16.75 C-11.96650391 15.79931641 -11.99550781 14.84863281 -12.02539062 13.86914062 C-12.06576288 9.42508682 -12.0861984 6.81848501 -9.73046875 2.95703125 C-6.37384492 -0.06330745 -4.43388136 -0.05155676 0 0 Z M-8.625 7.0625 C-8.80598107 9.99379989 -8.90323019 12.87900407 -8.9375 15.8125 C-8.96650391 16.62460937 -8.99550781 17.43671875 -9.02539062 18.2734375 C-9.06842983 22.33898698 -8.93162872 24.54123117 -6.828125 28.1171875 C-4.66461277 30.40638675 -4.66461277 30.40638675 -1.0625 30.4375 C2.3521968 30.18759016 2.3521968 30.18759016 5.375 29.0625 C5.375 28.4025 5.375 27.7425 5.375 27.0625 C6.035 27.0625 6.695 27.0625 7.375 27.0625 C7.4330476 23.79174117 7.46861165 20.52111476 7.5 17.25 C7.51675781 16.32123047 7.53351563 15.39246094 7.55078125 14.43554688 C7.55722656 13.54287109 7.56367188 12.65019531 7.5703125 11.73046875 C7.58078613 10.90828857 7.59125977 10.0861084 7.60205078 9.23901367 C7.51496135 6.76828408 7.51496135 6.76828408 5.375 4.0625 C-0.50892788 2.71209032 -4.09797873 2.53547873 -8.625 7.0625 Z " fill="#E0E0E0" transform="translate(330.625,372.9375)"/>
<path d="M0 0 C4.51315789 2.02631579 4.51315789 2.02631579 6 5 C6.039992 6.99960012 6.04346799 9.00047242 6 11 C5.01 11 4.02 11 3 11 C2.9175 10.21625 2.835 9.4325 2.75 8.625 C2.26127622 5.93675158 2.26127622 5.93675158 0.3125 4.6875 C-3.25713067 3.62625845 -6.61735172 3.30867586 -10 5 C-10.20970559 9.14093698 -10.20970559 9.14093698 -9 13 C-6.28224444 13.85800217 -3.53636584 14.47281172 -0.76171875 15.12109375 C2.12594509 16.04008153 3.86135811 16.85637293 6 19 C6.76305834 22.04662266 6.56232687 24.92112122 6 28 C3.80168636 31.03215675 2.55036806 31.81654398 -1 33 C-4.88011542 33.58386499 -8.45052078 33.91016158 -11.921875 31.87109375 C-14.88870017 29.16563175 -15.92253121 27.69721914 -16.375 23.625 C-16.25125 22.75875 -16.1275 21.8925 -16 21 C-14.125 21.125 -14.125 21.125 -12 22 C-10.75 25.0625 -10.75 25.0625 -10 28 C-6.04 28.33 -2.08 28.66 2 29 C2 26.36 2 23.72 2 21 C1.19175781 20.78085937 0.38351562 20.56171875 -0.44921875 20.3359375 C-10.28072463 17.41850632 -10.28072463 17.41850632 -13.3125 14.1875 C-15 11 -15 11 -15.0625 7.375 C-12.53578542 -0.65103456 -7.68244623 -1.05664714 0 0 Z " fill="#E8E8E8" transform="translate(270,373)"/>
<path d="M0 0 C0.99 0 1.98 0 3 0 C3 4.95 3 9.9 3 15 C5.64 15 8.28 15 11 15 C11 15.99 11 16.98 11 18 C8.69 18 6.38 18 4 18 C4.1387078 21.93778511 4.28718492 25.87514223 4.4375 29.8125 C4.47681641 30.93205078 4.51613281 32.05160156 4.55664062 33.20507812 C4.61948242 34.81479492 4.61948242 34.81479492 4.68359375 36.45703125 C4.72025146 37.44678955 4.75690918 38.43654785 4.79467773 39.45629883 C4.90790331 42.1218351 4.90790331 42.1218351 6 45 C7.98 45 9.96 45 12 45 C12 45.99 12 46.98 12 48 C8.3085701 48.34338883 6.45322305 48.27811415 3.25 46.3125 C-0.38025256 42.58140709 -1.25816791 39.04068456 -1.1953125 33.91796875 C-1.18886719 32.98662109 -1.18242187 32.05527344 -1.17578125 31.09570312 C-1.15902344 30.13599609 -1.14226562 29.17628906 -1.125 28.1875 C-1.11597656 27.20845703 -1.10695313 26.22941406 -1.09765625 25.22070312 C-1.07417182 22.81354939 -1.0413284 20.40690257 -1 18 C-2.32 18 -3.64 18 -5 18 C-5 17.01 -5 16.02 -5 15 C-3.35 15 -1.7 15 0 15 C0 10.05 0 5.1 0 0 Z " fill="#F5F5F5" transform="translate(354,358)"/>
<path d="M0 0 C1.32 0.33 2.64 0.66 4 1 C3.67 14.86 3.34 28.72 3 43 C8.94 42.67 14.88 42.34 21 42 C20.67 43.32 20.34 44.64 20 46 C13.4 46 6.8 46 0 46 C0 30.82 0 15.64 0 0 Z " fill="#FAFAFA" transform="translate(284,360)"/>
<path d="M0 0 C0.99 0 1.98 0 3 0 C3.01981934 1.26183105 3.03963867 2.52366211 3.06005859 3.82373047 C3.13598765 8.49418492 3.22472412 13.1643226 3.31738281 17.83447266 C3.35572521 19.85784666 3.39056871 21.88129006 3.421875 23.90478516 C3.46741169 26.80917203 3.52542409 29.71307894 3.5859375 32.6171875 C3.59748871 33.52556366 3.60903992 34.43393982 3.62094116 35.36984253 C3.64081085 36.21056305 3.66068054 37.05128357 3.68115234 37.91748047 C3.69447601 38.65916473 3.70779968 39.400849 3.7215271 40.16500854 C3.85199729 42.2473364 3.85199729 42.2473364 6 44 C8.57061311 44.64767793 8.57061311 44.64767793 11 45 C11 45.99 11 46.98 11 48 C7.75 48.375 7.75 48.375 4 48 C-0.52885555 43.05588262 -0.54161744 38.71916381 -0.390625 32.2265625 C-0.38496521 31.3028183 -0.37930542 30.3790741 -0.37347412 29.42733765 C-0.35118052 26.49268582 -0.30099748 23.55927939 -0.25 20.625 C-0.22992592 18.62892395 -0.21167674 16.63282866 -0.1953125 14.63671875 C-0.15133872 9.75733662 -0.08235999 4.87887907 0 0 Z " fill="#F8F8F8" transform="translate(172,358)"/>
<path d="M0 0 C1.4391134 0.28359887 2.87625518 0.57721399 4.3125 0.875 C5.11300781 1.03742188 5.91351563 1.19984375 6.73828125 1.3671875 C9 2 9 2 12 4 C12.25660094 7.07921132 12.39431504 9.21136993 11 12 C9.04196493 12.05389087 7.08351091 12.09274217 5.125 12.125 C4.03445313 12.14820313 2.94390625 12.17140625 1.8203125 12.1953125 C-1 12 -1 12 -3 10 C-3.144375 9.175 -3.28875 8.35 -3.4375 7.5 C-3.7765556 4.65063471 -3.7765556 4.65063471 -7 3 C-6.34 2.34 -5.68 1.68 -5 1 C-1.375 1.375 -1.375 1.375 2 2 C1.34 1.34 0.68 0.68 0 0 Z " fill="#2B2B2B" transform="translate(261,390)"/>
<path d="M0 0 C2.875 2.1875 2.875 2.1875 5 5 C5.3125 7.8125 5.3125 7.8125 5 10 C3.35 10 1.7 10 0 10 C0 10.66 0 11.32 0 12 C1.98 12 3.96 12 6 12 C6.66 13.65 7.32 15.3 8 17 C6.10213071 16.23419309 4.20678756 15.46212423 2.3125 14.6875 C1.25675781 14.25824219 0.20101562 13.82898438 -0.88671875 13.38671875 C-3.79343661 12.09200753 -6.42575577 10.87303328 -9 9 C-9.5 5.4375 -9.5 5.4375 -9 2 C-5.48175489 -0.34549674 -4.14224306 -0.57991403 0 0 Z " fill="#2C2C2C" transform="translate(238,376)"/>
<path d="M0 0 C4.51315789 2.02631579 4.51315789 2.02631579 6 5 C6.039992 6.99960012 6.04346799 9.00047242 6 11 C5.01 11 4.02 11 3 11 C2.54625 10.030625 2.0925 9.06125 1.625 8.0625 C0.34213779 4.92920418 0.34213779 4.92920418 -2 4 C-6.14503661 3.75212983 -6.14503661 3.75212983 -10 5 C-10.33380814 8.37436186 -10.33380814 8.37436186 -10 12 C-8.13875077 13.98239527 -8.13875077 13.98239527 -6 15 C-6.66 15 -7.32 15 -8 15 C-8 15.66 -8 16.32 -8 17 C-6.35 17.33 -4.7 17.66 -3 18 C-5 19 -5 19 -7.875 18.3125 C-11.26785026 16.88750289 -12.92171951 16.03748686 -15 13 C-15.48953317 9.52500398 -15.60110264 6.20220529 -14 3 C-13.34 3 -12.68 3 -12 3 C-12 2.34 -12 1.68 -12 1 C-8.31833802 -0.84083099 -4.02754194 -0.36729156 0 0 Z " fill="#D0D0D0" transform="translate(240,373)"/>
<path d="M0 0 C0.99 0.66 1.98 1.32 3 2 C3.375 5 3.375 5 3 8 C-0.19745142 10.13163428 -1.28757916 10.31975564 -5 10.375 C-5.86625 10.40335937 -6.7325 10.43171875 -7.625 10.4609375 C-10 10 -10 10 -11.8125 8.1640625 C-13 6 -13 6 -13 3 C-12.34 3 -11.68 3 -11 3 C-11 2.34 -11 1.68 -11 1 C-7.22301161 -1.56835211 -4.3286606 -0.94443504 0 0 Z " fill="#292929" transform="translate(240,392)"/>
<path d="M0 0 C2.875 1.5 2.875 1.5 5 3 C4.67 4.32 4.34 5.64 4 7 C3.34 7 2.68 7 2 7 C1.67 7.66 1.34 8.32 1 9 C1.66 9.33 2.32 9.66 3 10 C3 10.99 3 11.98 3 13 C1.37247769 12.74476126 -0.25203196 12.47025506 -1.875 12.1875 C-2.77992188 12.03667969 -3.68484375 11.88585937 -4.6171875 11.73046875 C-7 11 -7 11 -9 8 C-9.3125 4.9375 -9.3125 4.9375 -9 2 C-5.4913604 -0.33909307 -4.12910567 -0.41291057 0 0 Z " fill="#303030" transform="translate(268,376)"/>
<path d="M0 0 C8.94364932 -0.62518714 8.94364932 -0.62518714 13.0625 1.8125 C15.90983076 5.02722828 16.14078759 7.74713603 16.31640625 11.88671875 C16.35830078 12.82451172 16.40019531 13.76230469 16.44335938 14.72851562 C16.48267578 15.70498047 16.52199219 16.68144531 16.5625 17.6875 C16.60568359 18.67556641 16.64886719 19.66363281 16.69335938 20.68164062 C16.79941654 23.12095546 16.90147714 25.56037113 17 28 C17.66 28.33 18.32 28.66 19 29 C19 29.99 19 30.98 19 32 C14.125 31.125 14.125 31.125 13 30 C12.90333532 28.42414096 12.86800231 26.84442244 12.859375 25.265625 C12.84003906 24.29882812 12.82070312 23.33203125 12.80078125 22.3359375 C12.76718741 20.29446584 12.7487181 18.25268386 12.74609375 16.2109375 C12.59574531 10.10710975 12.59574531 10.10710975 9.72265625 4.81640625 C6.98330443 2.98886164 5.90004817 2.41525015 2.6875 2.6875 C1.470625 2.790625 0.25375 2.89375 -1 3 C-0.67 2.01 -0.34 1.02 0 0 Z " fill="#E3E3E3" transform="translate(199,374)"/>
<path d="M0 0 C0.33 0 0.66 0 1 0 C1.02187378 0.83192871 1.02187378 0.83192871 1.04418945 1.68066406 C1.11886897 4.20446242 1.21546025 6.72696654 1.3125 9.25 C1.33505859 10.12269531 1.35761719 10.99539063 1.38085938 11.89453125 C1.53208084 15.49635156 1.67448025 18.3072272 3.21875 21.59375 C5.63780775 23.50353243 7.14245184 23.40818432 10.1875 23.25 C11.53908203 23.19585937 11.53908203 23.19585937 12.91796875 23.140625 C13.60503906 23.09421875 14.29210937 23.0478125 15 23 C15 22.34 15 21.68 15 21 C16.32 20.67 17.64 20.34 19 20 C18.875 21.8125 18.875 21.8125 18 24 C13.25348729 27.24152088 9.5536438 27.61707153 4 27 C1.1899654 25.20636089 -0.50940468 23.98119065 -2 21 C-2.2367715 17.83880202 -2.18518001 14.66910262 -2.1875 11.5 C-2.20586914 10.17935547 -2.20586914 10.17935547 -2.22460938 8.83203125 C-2.22654297 7.99027344 -2.22847656 7.14851563 -2.23046875 6.28125 C-2.23457764 5.50845703 -2.23868652 4.73566406 -2.24291992 3.93945312 C-2 2 -2 2 0 0 Z " fill="#F0F0F0" transform="translate(321,379)"/>
<path d="M0 0 C3.69554708 2.11708466 5.73237419 4.51088897 7.625 8.375 C7.875 11.25 7.875 11.25 7.625 13.375 C6.305 13.375 4.985 13.375 3.625 13.375 C3.2846875 11.7353125 3.2846875 11.7353125 2.9375 10.0625 C1.98138983 6.34679354 1.98138983 6.34679354 -0.5390625 4.65625 C-3.94203228 3.11882013 -6.34465569 3.07303957 -10.0625 3.1875 C-11.20074219 3.21457031 -12.33898437 3.24164063 -13.51171875 3.26953125 C-14.92904297 3.32173828 -14.92904297 3.32173828 -16.375 3.375 C-17.035 3.375 -17.695 3.375 -18.375 3.375 C-19.73661311 4.33613866 -21.07355198 5.33384159 -22.375 6.375 C-21.4717987 3.0331552 -20.71147374 1.61894346 -17.875 -0.4375 C-11.76692619 -2.50988218 -5.95968391 -2.65739637 0 0 Z " fill="#DEDEDE" transform="translate(157.375,361.625)"/>
<path d="M0 0 C4.13348562 0.79490108 6.49106941 1.49106941 9.5 4.5 C11.54162469 9.26379094 10.9098965 12.99556925 10 18 C9.34 18 8.68 18 8 18 C7.62875 18.9590625 7.62875 18.9590625 7.25 19.9375 C6 22 6 22 3.875 22.75 C2.946875 22.87375 2.946875 22.87375 2 23 C2 21.68 2 20.36 2 19 C3.32 18.67 4.64 18.34 6 18 C6.51542371 11.73952956 6.51542371 11.73952956 4.1875 6.0625 C1.97970018 3.86570891 1.97970018 3.86570891 -1 2 C-0.67 1.34 -0.34 0.68 0 0 Z " fill="#DEDEDE" transform="translate(302,382)"/>
<path d="M0 0 C3.10375184 0.37621234 5.05796121 1.29130416 7.44921875 3.296875 C8.80361543 6.00566835 8.51423326 8.30620768 8.44921875 11.296875 C7.45921875 11.296875 6.46921875 11.296875 5.44921875 11.296875 C5.36671875 10.513125 5.28421875 9.729375 5.19921875 8.921875 C4.71049497 6.23362658 4.71049497 6.23362658 2.76171875 4.984375 C-0.19474618 4.10542597 -2.47889888 3.97688725 -5.55078125 4.296875 C-7.77821912 5.71665409 -7.77821912 5.71665409 -9.55078125 7.296875 C-10.21078125 7.296875 -10.87078125 7.296875 -11.55078125 7.296875 C-10.33190081 0.22736845 -6.43208779 -0.18779818 0 0 Z " fill="#E8E8E8" transform="translate(267.55078125,372.703125)"/>
<path d="M0 0 C2.1875 1.625 2.1875 1.625 3.1875 3.625 C3.227492 5.62460012 3.23096799 7.62547242 3.1875 9.625 C2.1975 9.625 1.2075 9.625 0.1875 9.625 C-0.26625 8.655625 -0.72 7.68625 -1.1875 6.6875 C-2.47036221 3.55420418 -2.47036221 3.55420418 -4.8125 2.625 C-8.19072416 2.48124578 -10.58640955 2.54963652 -13.8125 3.625 C-13 1.6875 -13 1.6875 -11.8125 -0.375 C-7.41171943 -1.84192686 -4.22363351 -2.06488749 0 0 Z " fill="#E8E8E8" transform="translate(242.8125,374.375)"/>
<path d="M0 0 C0.66 0.66 1.32 1.32 2 2 C2.66 1.67 3.32 1.34 4 1 C4 7.93 4 14.86 4 22 C2.02 22.99 2.02 22.99 0 24 C0 16.08 0 8.16 0 0 Z " fill="#3F3F3F" transform="translate(129,370)"/>
<path d="M0 0 C1.875 0.125 1.875 0.125 4 1 C5.25 4.0625 5.25 4.0625 6 7 C9.3 7.33 12.6 7.66 16 8 C16 8.33 16 8.66 16 9 C14.35 9.33 12.7 9.66 11 10 C12.32 10.66 13.64 11.32 15 12 C7.5388601 12.89533679 7.5388601 12.89533679 4.06640625 10.875 C1.11527698 8.15741334 0.07736729 6.69630564 -0.375 2.625 C-0.25125 1.75875 -0.1275 0.8925 0 0 Z " fill="#D2D2D2" transform="translate(254,394)"/>
<path d="M0 0 C6.30367803 0.58367389 11.98660063 2.04071619 18 4 C16.02 4.99 16.02 4.99 14 6 C13.67 5.67 13.34 5.34 13 5 C12.01 5.33 11.02 5.66 10 6 C2.81504065 5.81504065 2.81504065 5.81504065 0 3 C0 2.01 0 1.02 0 0 Z " fill="#252525" transform="translate(184,209)"/>
<path d="M0 0 C0.33 0.66 0.66 1.32 1 2 C-0.25541557 4.51083114 -1.50063488 4.87125446 -4 6 C-4 6.33 -4 6.66 -4 7 C-8.29 7 -12.58 7 -17 7 C-17 6.01 -17 5.02 -17 4 C-15.85660156 3.79503906 -14.71320313 3.59007812 -13.53515625 3.37890625 C-12.04423324 3.1069769 -10.55334984 2.83483026 -9.0625 2.5625 C-8.30775391 2.42779297 -7.55300781 2.29308594 -6.77539062 2.15429688 C-3.08046826 1.75727966 -3.08046826 1.75727966 0 0 Z " fill="#E5E5E5" transform="translate(307,377)"/>
<path d="M0 0 C0.99 0 1.98 0 3 0 C3.99 2.31 4.98 4.62 6 7 C9.3 7.33 12.6 7.66 16 8 C16 8.33 16 8.66 16 9 C13.03 9 10.06 9 7 9 C7 9.66 7 10.32 7 11 C7.99 11.33 8.98 11.66 10 12 C6.2347642 11.74327938 4.44160489 11.40674134 1.625 8.8125 C-0.24249951 5.58028931 -0.34155908 3.67176009 0 0 Z " fill="#CDCDCD" transform="translate(224,394)"/>
<path d="M0 0 C2.64 0 5.28 0 8 0 C8 0.99 8 1.98 8 3 C5.69 3 3.38 3 1 3 C1.08378906 4.31355469 1.16757812 5.62710937 1.25390625 6.98046875 C1.35710748 8.71612585 1.45995342 10.4518041 1.5625 12.1875 C1.61857422 13.05181641 1.67464844 13.91613281 1.73242188 14.80664062 C1.9761489 19.04749079 2.15770796 22.85797819 1 27 C0.67 27 0.34 27 0 27 C0 18.09 0 9.18 0 0 Z " fill="#353535" transform="translate(357,373)"/>
<path d="M0 0 C0 0.66 0 1.32 0 2 C-1.2065625 2.433125 -1.2065625 2.433125 -2.4375 2.875 C-5.1326468 3.73262568 -5.1326468 3.73262568 -6 6 C-8.109375 6.66796875 -8.109375 6.66796875 -10.75 7.1875 C-11.61109375 7.36667969 -12.4721875 7.54585937 -13.359375 7.73046875 C-16.15156261 8.01547015 -18.29271479 7.68655974 -21 7 C-21 6.67 -21 6.34 -21 6 C-20.13117188 5.73445312 -19.26234375 5.46890625 -18.3671875 5.1953125 C-17.21476562 4.84210938 -16.06234375 4.48890625 -14.875 4.125 C-13.73804688 3.77695313 -12.60109375 3.42890625 -11.4296875 3.0703125 C-9.17506269 2.36670521 -6.92955341 1.63306204 -4.6953125 0.8671875 C-2 0 -2 0 0 0 Z " fill="#3A3A3A" transform="translate(373,191)"/>
<path d="M0 0 C0.33 0 0.66 0 1 0 C1 5.61 1 11.22 1 17 C0.67 17 0.34 17 0 17 C-0.33 15.35 -0.66 13.7 -1 12 C-1.66 12 -2.32 12 -3 12 C-3.66 13.32 -4.32 14.64 -5 16 C-4.88557539 14.39504433 -4.75805306 12.79101881 -4.625 11.1875 C-4.55539062 10.29417969 -4.48578125 9.40085937 -4.4140625 8.48046875 C-4 6 -4 6 -2 3 C-1.34 3 -0.68 3 0 3 C0 2.01 0 1.02 0 0 Z " fill="#343434" transform="translate(318,380)"/>
<path d="M0 0 C-0.33 0.99 -0.66 1.98 -1 3 C-3.97 2.505 -3.97 2.505 -7 2 C-6.67 2.66 -6.34 3.32 -6 4 C-5.01 4 -4.02 4 -3 4 C-3.375 6.4375 -3.375 6.4375 -4 9 C-4.99 9.495 -4.99 9.495 -6 10 C-6.99 9.34 -7.98 8.68 -9 8 C-9.375 5 -9.375 5 -9 2 C-5.5647952 -0.29013653 -4.014669 -0.17842973 0 0 Z " fill="#252525" transform="translate(268,376)"/>
<path d="M0 0 C4.95 0.99 9.9 1.98 15 3 C13.68 3.33 12.36 3.66 11 4 C11 4.66 11 5.32 11 6 C5.06 5.01 5.06 5.01 -1 4 C-0.67 2.68 -0.34 1.36 0 0 Z " fill="#303030" transform="translate(195,297)"/>
<path d="M0 0 C1.8871875 0.061875 1.8871875 0.061875 3.8125 0.125 C3.8125 0.785 3.8125 1.445 3.8125 2.125 C4.8025 2.125 5.7925 2.125 6.8125 2.125 C9.49177341 6.14391012 8.96851248 8.36661923 8.8125 13.125 C8.4825 13.125 8.1525 13.125 7.8125 13.125 C7.4825 10.485 7.1525 7.845 6.8125 5.125 C2.25758386 2.92100832 -2.21656176 2.53653737 -7.1875 2.125 C-4.09861478 0.06574319 -3.47814073 -0.1140374 0 0 Z " fill="#2A2A2A" transform="translate(268.1875,370.875)"/>
<path d="M0 0 C0.98484375 0.02707031 1.9696875 0.05414063 2.984375 0.08203125 C3.73203125 0.11683594 4.4796875 0.15164063 5.25 0.1875 C5.25 0.5175 5.25 0.8475 5.25 1.1875 C0.795 1.6825 0.795 1.6825 -3.75 2.1875 C-3.42 2.8475 -3.09 3.5075 -2.75 4.1875 C-5.7326906 5.71198631 -8.568202 7.12690067 -11.75 8.1875 C-9.65399555 1.72481961 -6.76383093 -0.24156539 0 0 Z " fill="#D0D0D0" transform="translate(330.75,372.8125)"/>
<path d="M0 0 C0.66 0.33 1.32 0.66 2 1 C1.01 2.485 1.01 2.485 0 4 C-1.66666667 4 -3.33333333 4 -5 4 C-5.44085938 4.49113281 -5.88171875 4.98226562 -6.3359375 5.48828125 C-8.63851989 7.58006384 -10.13335569 7.30649264 -13.1875 7.1875 C-14.53908203 7.14689453 -14.53908203 7.14689453 -15.91796875 7.10546875 C-16.60503906 7.07066406 -17.29210937 7.03585938 -18 7 C-15.3975219 4.3975219 -13.08346696 3.96984594 -9.5625 2.9375 C-8.40878906 2.59589844 -7.25507813 2.25429687 -6.06640625 1.90234375 C-5.05449219 1.60457031 -4.04257812 1.30679688 -3 1 C-2.01 0.67 -1.02 0.34 0 0 Z " fill="#414141" transform="translate(392,184)"/>
<path d="M0 0 C1.65 0 3.3 0 5 0 C5 7.92 5 15.84 5 24 C4.67 24 4.34 24 4 24 C4 17.07 4 10.14 4 3 C2.68 3 1.36 3 0 3 C0 2.01 0 1.02 0 0 Z " fill="#959595" transform="translate(349,373)"/>
<path d="M0 0 C0 0.66 0 1.32 0 2 C-1.11375 2.2475 -2.2275 2.495 -3.375 2.75 C-7.04615198 3.61005339 -7.04615198 3.61005339 -8.4375 6.125 C-8.623125 6.74375 -8.80875 7.3625 -9 8 C-9.66 8 -10.32 8 -11 8 C-10.64987213 5.40905378 -10.26229035 3.4225789 -8.875 1.1875 C-5.99131838 -0.63883169 -3.32254207 -0.18806842 0 0 Z " fill="#3F3F3F" transform="translate(206,376)"/>
<path d="M0 0 C0 0.33 0 0.66 0 1 C-0.61488281 1.01417969 -1.22976562 1.02835937 -1.86328125 1.04296875 C-4.33475814 1.18881348 -6.59791502 1.39089988 -9 2 C-10.84434349 4.46115547 -10.84434349 4.46115547 -12 7 C-13.32 7 -14.64 7 -16 7 C-15.70926678 4.18957887 -15.18436938 3.16652718 -13.0625 1.25 C-8.70270059 -0.52950996 -4.64846562 -0.24370596 0 0 Z " fill="#D3D3D3" transform="translate(208,373)"/>
<path d="M0 0 C0 0.99 0 1.98 0 3 C-1.29009643 3.50403768 -2.58213789 4.00309926 -3.875 4.5 C-4.95394531 4.91765625 -4.95394531 4.91765625 -6.0546875 5.34375 C-8 6 -8 6 -10 6 C-10 5.34 -10 4.68 -10 4 C-8.68 3.67 -7.36 3.34 -6 3 C-7.32 2.01 -8.64 1.02 -10 0 C-6.7169902 -1.6415049 -3.57454967 -0.51888624 0 0 Z " fill="#343434" transform="translate(234,170)"/>
<path d="M0 0 C0.33 0 0.66 0 1 0 C1.05449838 1.72880982 1.09301688 3.45812712 1.125 5.1875 C1.14820313 6.15042969 1.17140625 7.11335938 1.1953125 8.10546875 C0.98886847 11.16496921 0.39897065 13.27977929 -1 16 C-3.125 16.8125 -3.125 16.8125 -5 17 C-4.37240135 14.07120629 -3.41377341 11.63904371 -2 9 C-1.67 9 -1.34 9 -1 9 C-0.67 6.03 -0.34 3.06 0 0 Z " fill="#515151" transform="translate(158,251)"/>
<path d="M0 0 C4.44810473 -0.36065714 4.44810473 -0.36065714 6.6796875 1.09765625 C8.67446732 3.97179167 8.13505179 6.20215633 7.8125 9.625 C7.71582031 10.79289062 7.61914062 11.96078125 7.51953125 13.1640625 C7.26236328 14.56785156 7.26236328 14.56785156 7 16 C6.34 16.33 5.68 16.66 5 17 C5 12.38 5 7.76 5 3 C2.525 2.01 2.525 2.01 0 1 C0 0.67 0 0.34 0 0 Z " fill="#505050" transform="translate(304,361)"/>
<path d="M0 0 C-1.65 4.29 -3.3 8.58 -5 13 C-5.33 13 -5.66 13 -6 13 C-6 11.02 -6 9.04 -6 7 C-5.34 7 -4.68 7 -4 7 C-4.33 6.401875 -4.66 5.80375 -5 5.1875 C-6 3 -6 3 -6 0 C-4 -1 -4 -1 0 0 Z " fill="#404040" transform="translate(121,197)"/>
<path d="M0 0 C0.99 0 1.98 0 3 0 C3.25 5.625 3.25 5.625 1 9 C0.34 9 -0.32 9 -1 9 C-1.09765625 2.84765625 -1.09765625 2.84765625 -1 1 C-0.67 0.67 -0.34 0.34 0 0 Z " fill="#D5D5D5" transform="translate(162,389)"/>
<path d="M0 0 C1.2065625 0.0309375 1.2065625 0.0309375 2.4375 0.0625 C-0.01846893 2.94020097 -2.47139595 4.02937126 -6 5.3125 C-6.94746094 5.66828125 -7.89492188 6.0240625 -8.87109375 6.390625 C-11.62124071 7.07716386 -12.94253295 7.02872898 -15.5625 6.0625 C-14.70785156 5.71316406 -13.85320312 5.36382812 -12.97265625 5.00390625 C-11.86792969 4.54886719 -10.76320313 4.09382813 -9.625 3.625 C-8.52285156 3.17253906 -7.42070312 2.72007812 -6.28515625 2.25390625 C-1.20138889 0.02930217 -1.20138889 0.02930217 0 0 Z " fill="#4F4F4F" transform="translate(343.5625,284.9375)"/>
<path d="M0 0 C0.98484375 0.01804688 1.9696875 0.03609375 2.984375 0.0546875 C4.10585938 0.08949219 4.10585938 0.08949219 5.25 0.125 C2.2030371 1.81933918 -0.57821466 2.61967112 -4 3.25 C-5.33804687 3.50136719 -5.33804687 3.50136719 -6.703125 3.7578125 C-7.71632813 3.93957031 -7.71632813 3.93957031 -8.75 4.125 C-9.08 3.465 -9.41 2.805 -9.75 2.125 C-6.40060119 0.09941119 -3.88037449 -0.09238987 0 0 Z " fill="#343434" transform="translate(314.75,226.875)"/>
<path d="M0 0 C2.31 0.66 4.62 1.32 7 2 C6.42655063 4.86724686 6.1385485 5.8614515 4 8 C3.34 7.67 2.68 7.34 2 7 C2 6.34 2 5.68 2 5 C1.34 4.67 0.68 4.34 0 4 C0 2.68 0 1.36 0 0 Z " fill="#292929" transform="translate(118,186)"/>
<path d="M0 0 C4.88050977 1.07536656 8.89296171 2.01306306 13 5 C13.33 5.66 13.66 6.32 14 7 C4.22210581 3.99633316 4.22210581 3.99633316 0 1 C0 0.67 0 0.34 0 0 Z " fill="#454545" transform="translate(59,466)"/>
<path d="M0 0 C1.09054688 0.02320313 2.18109375 0.04640625 3.3046875 0.0703125 C4.40039062 0.08835937 5.49609375 0.10640625 6.625 0.125 C7.46804687 0.14820313 8.31109375 0.17140625 9.1796875 0.1953125 C8.1896875 1.6803125 8.1896875 1.6803125 7.1796875 3.1953125 C4.5546875 3.3828125 4.5546875 3.3828125 2.1796875 3.1953125 C2.1796875 2.5353125 2.1796875 1.8753125 2.1796875 1.1953125 C1.1896875 1.8553125 0.1996875 2.5153125 -0.8203125 3.1953125 C-3.0078125 2.8203125 -3.0078125 2.8203125 -4.8203125 2.1953125 C-2.8203125 0.1953125 -2.8203125 0.1953125 0 0 Z " fill="#343434" transform="translate(144.8203125,363.8046875)"/>
<path d="M0 0 C3.10633303 0.93189991 5.28790442 2.19193628 8 4 C3.545 4.495 3.545 4.495 -1 5 C-1.66 4.01 -2.32 3.02 -3 2 C-2.01 1.34 -1.02 0.68 0 0 Z " fill="#313131" transform="translate(86,337)"/>
<path d="M0 0 C0.66 1.32 1.32 2.64 2 4 C-2.29 3.01 -6.58 2.02 -11 1 C-9.68 0.67 -8.36 0.34 -7 0 C-4.25509788 -1.37245106 -2.87939419 -0.93580311 0 0 Z " fill="#3E3E3E" transform="translate(400,154)"/>
<path d="M0 0 C0.66 1.32 1.32 2.64 2 4 C-2.29 3.01 -6.58 2.02 -11 1 C-9.68 0.67 -8.36 0.34 -7 0 C-4.25509788 -1.37245106 -2.87939419 -0.93580311 0 0 Z " fill="#3E3E3E" transform="translate(376,146)"/>
<path d="M0 0 C0.66 1.32 1.32 2.64 2 4 C-2.29 3.01 -6.58 2.02 -11 1 C-9.68 0.67 -8.36 0.34 -7 0 C-4.25509788 -1.37245106 -2.87939419 -0.93580311 0 0 Z " fill="#3F3F3F" transform="translate(352,138)"/>
<path d="M0 0 C2.97 0 5.94 0 9 0 C9 0.99 9 1.98 9 3 C6.03 2.67 3.06 2.34 0 2 C0 1.34 0 0.68 0 0 Z " fill="#F7F7F7" transform="translate(231,403)"/>
<path d="M0 0 C0.66 0 1.32 0 2 0 C2 0.66 2 1.32 2 2 C1.01 1.67 0.02 1.34 -1 1 C-0.67 0.67 -0.34 0.34 0 0 Z M-7 1 C-2.44615385 0.63076923 -2.44615385 0.63076923 -0.1875 2.5 C0.204375 2.995 0.59625 3.49 1 4 C0.071875 4.185625 0.071875 4.185625 -0.875 4.375 C-3.19120832 4.87197356 -3.19120832 4.87197356 -5 7 C-4.67 5.68 -4.34 4.36 -4 3 C-4.99 3.33 -5.98 3.66 -7 4 C-7 3.01 -7 2.02 -7 1 Z " fill="#1D1D1D" transform="translate(268,377)"/>
<path d="M0 0 C0.66 1.32 1.32 2.64 2 4 C0.02 6.97 0.02 6.97 -2 10 C-2.66 9.34 -3.32 8.68 -4 8 C-4 7.01 -4 6.02 -4 5 C-3.34 5 -2.68 5 -2 5 C-1.34 3.35 -0.68 1.7 0 0 Z " fill="#2B2B2B" transform="translate(93,308)"/>
<path d="M0 0 C0 1.32 0 2.64 0 4 C-1.625 3.45833333 -3.25 2.91666667 -4.875 2.375 C-7.47885024 1.91549702 -9.45424806 2.36356201 -12 3 C-11 1 -11 1 -7.6875 -0.1875 C-4.42437937 -0.90649268 -3.00717118 -1.20286847 0 0 Z " fill="#464646" transform="translate(222,162)"/>
<path d="M0 0 C1.67542976 0.28604898 3.34385343 0.61781233 5 1 C5 2.32 5 3.64 5 5 C3.35 4.67 1.7 4.34 0 4 C-0.33 3.01 -0.66 2.02 -1 1 C-0.67 0.67 -0.34 0.34 0 0 Z " fill="#2E2E2E" transform="translate(354,139)"/>
<path d="M0 0 C1.1875 1.6875 1.1875 1.6875 2 4 C0.6875 6.75 0.6875 6.75 -1 9 C-1.33 9 -1.66 9 -2 9 C-2.125 5.625 -2.125 5.625 -2 2 C-1.34 1.34 -0.68 0.68 0 0 Z " fill="#2E2E2E" transform="translate(460,440)"/>
<path d="M0 0 C0.33 0 0.66 0 1 0 C2.25 7.625 2.25 7.625 0 11 C-1.32 10.67 -2.64 10.34 -4 10 C-3.525625 9.46375 -3.05125 8.9275 -2.5625 8.375 C-0.71813924 5.57157164 -0.37543153 3.30379742 0 0 Z " fill="#515151" transform="translate(246,394)"/>
<path d="M0 0 C3.37503669 1.1858237 5.64722731 2.27573689 8 5 C5.69 5.33 3.38 5.66 1 6 C0.67 4.02 0.34 2.04 0 0 Z " fill="#3E3E3E" transform="translate(352,401)"/>
<path d="M0 0 C0.33 0.66 0.66 1.32 1 2 C1.66 2 2.32 2 3 2 C1.95125002 4.62187494 1.35068687 5.79371361 -1.125 7.25 C-1.74375 7.4975 -2.3625 7.745 -3 8 C-3 6.68 -3 5.36 -3 4 C-2.34 3.67 -1.68 3.34 -1 3 C-0.67 2.01 -0.34 1.02 0 0 Z " fill="#E4E4E4" transform="translate(160,396)"/>
<path d="M0 0 C3.3 0.33 6.6 0.66 10 1 C10.66 2.65 11.32 4.3 12 6 C8.04 4.35 4.08 2.7 0 1 C0 0.67 0 0.34 0 0 Z " fill="#555555" transform="translate(234,387)"/>
<path d="M0 0 C2.31 0 4.62 0 7 0 C7 0.99 7 1.98 7 3 C4.69 3 2.38 3 0 3 C0 2.01 0 1.02 0 0 Z " fill="#F4F4F4" transform="translate(358,373)"/>
<path d="M0 0 C0.66 0.33 1.32 0.66 2 1 C0.84826645 3.46800047 -0.04783565 5.04783565 -2 7 C-3.5 5.625 -3.5 5.625 -5 4 C-5 3.34 -5 2.68 -5 2 C-2.625 0.9375 -2.625 0.9375 0 0 Z " fill="#323232" transform="translate(344,200)"/>
<path d="M0 0 C3.96 0.99 3.96 0.99 8 2 C6.02 2.99 6.02 2.99 4 4 C3.67 3.67 3.34 3.34 3 3 C2.01 3.33 1.02 3.66 0 4 C-0.66 3.34 -1.32 2.68 -2 2 C-1.34 2 -0.68 2 0 2 C0 1.34 0 0.68 0 0 Z " fill="#474747" transform="translate(194,211)"/>
<path d="M0 0 C1.32 1.65 2.64 3.3 4 5 C3.67 5.66 3.34 6.32 3 7 C2.01 7 1.02 7 0 7 C0 5.68 0 4.36 0 3 C-0.66 3 -1.32 3 -2 3 C-1 1 -1 1 0 0 Z " fill="#393939" transform="translate(459,52)"/>
<path d="M0 0 C0.33 0 0.66 0 1 0 C1.07654536 4.51617599 1.10228696 8.59085217 0 13 C-0.66 12.34 -1.32 11.68 -2 11 C-1.6875 8.75 -1.6875 8.75 -1 6 C-0.66055205 4.00102872 -0.32578384 2.00124361 0 0 Z " fill="#484848" transform="translate(468,416)"/>
<path d="M0 0 C1.65 1.65 3.3 3.3 5 5 C4.01 5.33 3.02 5.66 2 6 C2 5.34 2 4.68 2 4 C0.68 3.67 -0.64 3.34 -2 3 C-2 2.34 -2 1.68 -2 1 C-1.34 0.67 -0.68 0.34 0 0 Z " fill="#393939" transform="translate(254,400)"/>
<path d="M0 0 C-0.33 0.99 -0.66 1.98 -1 3 C-3.97 2.505 -3.97 2.505 -7 2 C-7 2.66 -7 3.32 -7 4 C-7.66 4 -8.32 4 -9 4 C-8.67 3.01 -8.34 2.02 -8 1 C-5.29120665 -0.35439668 -2.99066732 -0.06501451 0 0 Z " fill="#5A5A5A" transform="translate(268,376)"/>
<path d="M0 0 C0.99 0 1.98 0 3 0 C5.67927341 4.01891012 5.15601248 6.24161923 5 11 C4.67 11 4.34 11 4 11 C3.67 8.36 3.34 5.72 3 3 C2.01 2.67 1.02 2.34 0 2 C0 1.34 0 0.68 0 0 Z " fill="#353535" transform="translate(272,373)"/>
<path d="M0 0 C0.66666667 2.66666667 1.33333333 5.33333333 2 8 C1.01 8.33 0.02 8.66 -1 9 C-1.33 9.66 -1.66 10.32 -2 11 C-1.125 3.375 -1.125 3.375 0 0 Z " fill="#575757" transform="translate(131,211)"/>
<path d="M0 0 C-1.0625 1.5625 -1.0625 1.5625 -3 3 C-6.6875 2.6875 -6.6875 2.6875 -10 2 C-3.72972973 -1.24324324 -3.72972973 -1.24324324 0 0 Z " fill="#3E3E3E" transform="translate(326,208)"/>
<path d="M0 0 C1.98 0.66 3.96 1.32 6 2 C3.38058783 3.74627478 1.96175123 4.38722388 -1 5 C-1.33 4.01 -1.66 3.02 -2 2 C-1.34 1.34 -0.68 0.68 0 0 Z " fill="#2E2E2E" transform="translate(170,132)"/>
<path d="M0 0 C1.0326802 2.78823655 1.04509293 3.8677274 0.0625 6.75 C-0.288125 7.4925 -0.63875 8.235 -1 9 C-1.99 8.34 -2.98 7.68 -4 7 C-2.79618552 4.50638429 -1.54571278 2.31856917 0 0 Z " fill="#424242" transform="translate(45,45)"/>
<path d="M0 0 C0.66 0 1.32 0 2 0 C2 0.66 2 1.32 2 2 C3.98 2.66 5.96 3.32 8 4 C7.34 4.66 6.68 5.32 6 6 C4 5.9375 4 5.9375 2 5 C0.75 2.4375 0.75 2.4375 0 0 Z " fill="#3F3F3F" transform="translate(136,401)"/>
<path d="M0 0 C1.8125 1.5625 1.8125 1.5625 3 3 C-0.71888239 2.49287967 -3.73454239 1.88391785 -7 0 C-4.26634878 -1.36682561 -2.89333621 -0.84683011 0 0 Z " fill="#3E3E3E" transform="translate(215,234)"/>
<path d="M0 0 C0.66 0.33 1.32 0.66 2 1 C2 1.99 2 2.98 2 4 C-1 4 -4 4 -7 4 C-4.61426621 2.10786631 -2.92824652 0.97608217 0 0 Z " fill="#1D1D1D" transform="translate(421,175)"/>
<path d="M0 0 C0.33 0.99 0.66 1.98 1 3 C-0.375 4.5 -0.375 4.5 -2 6 C-2.66 6 -3.32 6 -4 6 C-4 4.68 -4 3.36 -4 2 C-2.68 1.34 -1.36 0.68 0 0 Z " fill="#E7E7E7" transform="translate(244,399)"/>
</svg>
