<svg width="100" height="92" viewBox="0 0 100 92" fill="none" xmlns="http://www.w3.org/2000/svg">
<path d="M97.485 55.8853H94.6293C95.3432 52.6936 95.7212 49.3759 95.7212 45.9743C95.7212 21.0499 75.5213 0.828979 50.5759 0.828979C25.6305 0.828979 11.5409 15.4855 6.71142 35.2444H1.67195C0.790039 35.2444 0.0551147 35.9583 0.0551147 36.8612V38.898C0.0551147 39.7799 0.769041 40.5149 1.67195 40.5149H5.74552C5.53555 42.2997 5.40956 44.1475 5.40956 45.9953C5.40956 70.9197 25.6095 91.1406 50.5549 91.1406C75.5003 91.1406 86.8601 78.6259 93.0754 61.1557H97.443C98.3249 61.1557 99.0598 60.4418 99.0598 59.5389V57.5021C99.0598 56.6202 98.3459 55.8853 97.443 55.8853H97.485ZM89.4428 55.8853H71.6367C70.7548 55.8853 70.0198 56.5992 70.0198 57.5021V59.5389C70.0198 60.4208 70.7338 61.1557 71.6367 61.1557H87.7C86.9441 63.0035 86.0622 64.7673 85.0543 66.4681H59.5209C58.639 66.4681 57.9041 67.1821 57.9041 68.085V70.1218C57.9041 71.0037 58.618 71.7386 59.5209 71.7386H81.3377C73.9884 80.5367 62.9226 86.1221 50.5759 86.1221C28.4232 86.1221 10.47 68.169 10.47 46.0163C10.47 23.8636 10.596 42.3207 10.848 40.5359H27.5203C28.4022 40.5359 29.1371 39.8219 29.1371 38.919V36.8822C29.1371 36.0003 28.4232 35.2654 27.5203 35.2654H11.9189C12.4228 33.4386 13.0528 31.6748 13.8087 29.953H39.636C40.5179 29.953 41.2528 29.239 41.2528 28.3361V26.2993C41.2528 25.4174 40.5389 24.6825 39.636 24.6825H16.5804C23.6777 13.3857 36.2343 5.86845 50.5759 5.86845C72.7286 5.86845 90.6817 23.8216 90.6817 45.9743C90.6817 68.127 90.2617 52.7146 89.4428 55.8853Z" fill="white"/>
<path d="M17.7563 68.232L35.8984 66.8671L25.6305 51.8537L17.7563 68.232Z" fill="white"/>
<path d="M27.3113 50.6959L29.95 54.5641L67.869 28.6976L65.2302 24.8293L27.3113 50.6959Z" fill="white"/>
<path d="M30.9311 55.9987L34.0195 60.5261L71.9384 34.6595L68.85 30.1321L30.9311 55.9987Z" fill="white"/>
<path d="M35.0308 61.8966L37.705 65.8168L75.6239 39.9503L72.9497 36.03L35.0308 61.8966Z" fill="white"/>
<path d="M77.466 39.0608L67.0241 23.6381L70.7971 21.0835C75.0571 18.1994 80.8425 19.3286 83.7149 23.5711C86.5991 27.831 85.4698 33.6164 81.2273 36.4888L77.4542 39.0434L77.466 39.0608Z" fill="white"/>
<path d="M54.0615 70.8987C55.024 70.8987 55.8043 70.1184 55.8043 69.1559C55.8043 68.1934 55.024 67.4131 54.0615 67.4131C53.0989 67.4131 52.3187 68.1934 52.3187 69.1559C52.3187 70.1184 53.0989 70.8987 54.0615 70.8987Z" fill="white"/>
<path d="M45.3684 29.1971C46.3309 29.1971 47.1112 28.4168 47.1112 27.4542C47.1112 26.4917 46.3309 25.7114 45.3684 25.7114C44.4059 25.7114 43.6256 26.4917 43.6256 27.4542C43.6256 28.4168 44.4059 29.1971 45.3684 29.1971Z" fill="white"/>
</svg>
