<svg xmlns="http://www.w3.org/2000/svg" xmlns:xlink="http://www.w3.org/1999/xlink" width="1000" zoomAndPan="magnify" viewBox="0 0 750 749.999995" height="1000" preserveAspectRatio="xMidYMid meet" version="1.0"><defs><clipPath id="147ab87b12"><path d="M 139.84375 216 L 505.851562 216 L 505.851562 741 L 139.84375 741 Z M 139.84375 216 " clip-rule="nonzero"/></clipPath><clipPath id="3773cb8f68"><path d="M 140 0 L 617.117188 0 L 617.117188 547.769531 L 140 547.769531 Z M 140 0 " clip-rule="nonzero"/></clipPath><clipPath id="2a4047cfb9"><path d="M 522.265625 91.230469 C 504.324219 120.945312 484.859375 149.703125 467.300781 179.796875 L 465.964844 182.273438 C 459.476562 195.605469 473.410156 210.460938 486.960938 203.792969 L 487.914062 203.222656 C 542.304688 171.796875 569.023438 122.46875 574.554688 60.949219 C 576.464844 40.757812 572.457031 20 577.226562 0 C 582.191406 31.996094 597.839844 62.851562 601.847656 95.039062 C 610.054688 159.417969 592.878906 219.222656 562.914062 275.980469 C 554.707031 291.40625 537.53125 309.691406 559.097656 323.59375 C 580.664062 337.5 593.449219 317.121094 606.046875 302.835938 L 617.113281 289.3125 C 617.113281 331.59375 603.375 363.59375 583.144531 392.925781 C 570.167969 411.78125 554.136719 428.539062 540.777344 447.207031 C 540.777344 447.394531 540.777344 447.394531 540.585938 447.394531 C 540.179688 448.003906 539.816406 448.628906 539.488281 449.28125 C 539.160156 449.933594 538.875 450.601562 538.628906 451.289062 C 538.382812 451.972656 538.183594 452.671875 538.023438 453.382812 C 537.863281 454.09375 537.75 454.8125 537.679688 455.539062 C 537.609375 456.265625 537.585938 456.992188 537.605469 457.71875 C 537.625 458.445312 537.691406 459.171875 537.800781 459.890625 C 537.910156 460.613281 538.066406 461.324219 538.261719 462.023438 C 538.460938 462.726562 538.699219 463.410156 538.980469 464.082031 C 539.265625 464.753906 539.585938 465.40625 539.949219 466.039062 C 540.3125 466.671875 540.714844 467.277344 541.152344 467.863281 C 541.589844 468.445312 542.0625 468.996094 542.570312 469.523438 C 543.074219 470.046875 543.613281 470.539062 544.179688 470.996094 C 544.746094 471.457031 545.339844 471.878906 545.960938 472.261719 C 546.578125 472.648438 547.21875 472.992188 547.882812 473.300781 C 548.546875 473.605469 549.222656 473.871094 549.917969 474.09375 C 550.613281 474.316406 551.320312 474.496094 552.035156 474.632812 L 570.167969 472.347656 C 561.316406 481.808594 551.820312 490.574219 541.683594 498.648438 C 531.546875 506.722656 520.875 514.015625 509.667969 520.535156 C 488.984375 532.484375 467.097656 541.566406 444.019531 547.769531 C 502.988281 468.347656 511.195312 391.398438 453.179688 316.929688 C 408.332031 259.027344 345.542969 237.695312 274.359375 256.742188 C 194.394531 278.265625 152.410156 335.023438 141.722656 415.96875 C 134.089844 352.546875 152.027344 298.074219 205.464844 260.742188 C 248.59375 230.460938 287.910156 215.601562 298.023438 212.554688 C 340.582031 199.222656 409.285156 168.367188 522.265625 91.230469 Z M 522.265625 91.230469 " clip-rule="nonzero"/></clipPath><linearGradient x1="586.450025" gradientTransform="matrix(1.908442, 0, 0, 1.904624, -924.906611, -457.490767)" y1="553.683317" x2="829.295371" gradientUnits="userSpaceOnUse" y2="257.670518" id="a64d183bbd"><stop stop-opacity="1" stop-color="rgb(100%, 41.19873%, 7.798767%)" offset="0"/><stop stop-opacity="1" stop-color="rgb(100%, 41.19873%, 7.798767%)" offset="0.25"/><stop stop-opacity="1" stop-color="rgb(100%, 41.19873%, 7.798767%)" offset="0.375"/><stop stop-opacity="1" stop-color="rgb(100%, 41.19873%, 7.798767%)" offset="0.40625"/><stop stop-opacity="1" stop-color="rgb(99.966431%, 41.113281%, 7.788086%)" offset="0.419272"/><stop stop-opacity="1" stop-color="rgb(99.932861%, 41.027832%, 7.777405%)" offset="0.421875"/><stop stop-opacity="1" stop-color="rgb(99.859619%, 40.837097%, 7.752991%)" offset="0.429688"/><stop stop-opacity="1" stop-color="rgb(99.711609%, 40.455627%, 7.705688%)" offset="0.4375"/><stop stop-opacity="1" stop-color="rgb(99.565125%, 40.074158%, 7.658386%)" offset="0.445312"/><stop stop-opacity="1" stop-color="rgb(99.41864%, 39.692688%, 7.611084%)" offset="0.453125"/><stop stop-opacity="1" stop-color="rgb(99.27063%, 39.311218%, 7.563782%)" offset="0.460937"/><stop stop-opacity="1" stop-color="rgb(99.124146%, 38.929749%, 7.516479%)" offset="0.46875"/><stop stop-opacity="1" stop-color="rgb(98.976135%, 38.548279%, 7.469177%)" offset="0.476562"/><stop stop-opacity="1" stop-color="rgb(98.829651%, 38.166809%, 7.421875%)" offset="0.484375"/><stop stop-opacity="1" stop-color="rgb(98.683167%, 37.785339%, 7.374573%)" offset="0.492188"/><stop stop-opacity="1" stop-color="rgb(98.535156%, 37.40387%, 7.327271%)" offset="0.5"/><stop stop-opacity="1" stop-color="rgb(98.388672%, 37.0224%, 7.279968%)" offset="0.507812"/><stop stop-opacity="1" stop-color="rgb(98.240662%, 36.64093%, 7.232666%)" offset="0.515625"/><stop stop-opacity="1" stop-color="rgb(98.094177%, 36.25946%, 7.185364%)" offset="0.523438"/><stop stop-opacity="1" stop-color="rgb(97.947693%, 35.877991%, 7.138062%)" offset="0.53125"/><stop stop-opacity="1" stop-color="rgb(97.799683%, 35.496521%, 7.090759%)" offset="0.539062"/><stop stop-opacity="1" stop-color="rgb(97.653198%, 35.115051%, 7.043457%)" offset="0.546875"/><stop stop-opacity="1" stop-color="rgb(97.505188%, 34.733582%, 6.996155%)" offset="0.554688"/><stop stop-opacity="1" stop-color="rgb(97.358704%, 34.353638%, 6.948853%)" offset="0.5625"/><stop stop-opacity="1" stop-color="rgb(97.212219%, 33.972168%, 6.90155%)" offset="0.570312"/><stop stop-opacity="1" stop-color="rgb(97.064209%, 33.590698%, 6.854248%)" offset="0.578125"/><stop stop-opacity="1" stop-color="rgb(96.917725%, 33.209229%, 6.806946%)" offset="0.580728"/><stop stop-opacity="1" stop-color="rgb(96.844482%, 33.018494%, 6.782532%)" offset="0.585938"/><stop stop-opacity="1" stop-color="rgb(96.769714%, 32.827759%, 6.758118%)" offset="0.59375"/><stop stop-opacity="1" stop-color="rgb(96.62323%, 32.446289%, 6.710815%)" offset="0.601562"/><stop stop-opacity="1" stop-color="rgb(96.476746%, 32.064819%, 6.663513%)" offset="0.609375"/><stop stop-opacity="1" stop-color="rgb(96.328735%, 31.68335%, 6.616211%)" offset="0.617188"/><stop stop-opacity="1" stop-color="rgb(96.182251%, 31.30188%, 6.568909%)" offset="0.625"/><stop stop-opacity="1" stop-color="rgb(96.035767%, 30.92041%, 6.521606%)" offset="0.632812"/><stop stop-opacity="1" stop-color="rgb(95.887756%, 30.53894%, 6.474304%)" offset="0.640625"/><stop stop-opacity="1" stop-color="rgb(95.741272%, 30.157471%, 6.427002%)" offset="0.648438"/><stop stop-opacity="1" stop-color="rgb(95.593262%, 29.776001%, 6.3797%)" offset="0.65625"/><stop stop-opacity="1" stop-color="rgb(95.446777%, 29.394531%, 6.332397%)" offset="0.664062"/><stop stop-opacity="1" stop-color="rgb(95.300293%, 29.013062%, 6.285095%)" offset="0.671875"/><stop stop-opacity="1" stop-color="rgb(95.152283%, 28.631592%, 6.237793%)" offset="0.679688"/><stop stop-opacity="1" stop-color="rgb(95.005798%, 28.250122%, 6.190491%)" offset="0.6875"/><stop stop-opacity="1" stop-color="rgb(94.857788%, 27.868652%, 6.143188%)" offset="0.695312"/><stop stop-opacity="1" stop-color="rgb(94.711304%, 27.487183%, 6.095886%)" offset="0.703125"/><stop stop-opacity="1" stop-color="rgb(94.564819%, 27.105713%, 6.048584%)" offset="0.710938"/><stop stop-opacity="1" stop-color="rgb(94.416809%, 26.724243%, 6.001282%)" offset="0.71875"/><stop stop-opacity="1" stop-color="rgb(94.270325%, 26.342773%, 5.953979%)" offset="0.726562"/><stop stop-opacity="1" stop-color="rgb(94.125366%, 25.959778%, 5.905151%)" offset="0.734375"/><stop stop-opacity="1" stop-color="rgb(93.986511%, 25.575256%, 5.851746%)" offset="0.742188"/><stop stop-opacity="1" stop-color="rgb(93.85376%, 25.187683%, 5.795288%)" offset="0.75"/><stop stop-opacity="1" stop-color="rgb(93.719482%, 24.80011%, 5.738831%)" offset="0.757813"/><stop stop-opacity="1" stop-color="rgb(93.585205%, 24.412537%, 5.682373%)" offset="0.765625"/><stop stop-opacity="1" stop-color="rgb(93.452454%, 24.026489%, 5.625916%)" offset="0.773438"/><stop stop-opacity="1" stop-color="rgb(93.318176%, 23.638916%, 5.569458%)" offset="0.78125"/><stop stop-opacity="1" stop-color="rgb(93.183899%, 23.251343%, 5.513%)" offset="0.789062"/><stop stop-opacity="1" stop-color="rgb(93.051147%, 22.865295%, 5.456543%)" offset="0.796875"/><stop stop-opacity="1" stop-color="rgb(92.91687%, 22.477722%, 5.401611%)" offset="0.804688"/><stop stop-opacity="1" stop-color="rgb(92.782593%, 22.090149%, 5.345154%)" offset="0.8125"/><stop stop-opacity="1" stop-color="rgb(92.649841%, 21.702576%, 5.288696%)" offset="0.820313"/><stop stop-opacity="1" stop-color="rgb(92.515564%, 21.316528%, 5.232239%)" offset="0.828125"/><stop stop-opacity="1" stop-color="rgb(92.381287%, 20.928955%, 5.175781%)" offset="0.835938"/><stop stop-opacity="1" stop-color="rgb(92.25769%, 20.567322%, 5.123901%)" offset="0.84375"/><stop stop-opacity="1" stop-color="rgb(92.199707%, 20.399475%, 5.099487%)" offset="0.875"/><stop stop-opacity="1" stop-color="rgb(92.199707%, 20.399475%, 5.099487%)" offset="1"/></linearGradient></defs><g clip-path="url(#147ab87b12)"><path fill="#ff6914" d="M 323.125 216.007812 C 424.34375 216.007812 506.402344 298.066406 506.402344 399.292969 C 506.402344 434.511719 496.464844 467.402344 479.242188 495.332031 C 458.585938 529.546875 437.929688 563.765625 417.277344 597.984375 C 392.121094 638.875 371.765625 671.964844 346.609375 712.859375 C 324.433594 748.914062 322.933594 749.800781 300.640625 713.558594 C 275.613281 672.871094 254.570312 638.671875 229.542969 597.984375 C 208.933594 564.152344 188.332031 530.316406 167.722656 496.488281 C 150.066406 468.3125 139.84375 434.996094 139.84375 399.292969 C 139.84375 298.066406 221.902344 216.007812 323.125 216.007812 Z M 323.125 307.898438 C 368.5 307.898438 405.289062 344.6875 405.289062 390.0625 C 405.289062 435.445312 368.503906 472.226562 323.125 472.226562 C 277.742188 472.226562 240.957031 435.441406 240.957031 390.0625 C 240.957031 344.6875 277.746094 307.898438 323.125 307.898438 Z M 323.125 307.898438 " fill-opacity="1" fill-rule="evenodd"/></g><g clip-path="url(#3773cb8f68)"><g clip-path="url(#2a4047cfb9)"><path fill="url(#a64d183bbd)" d="M 134.089844 0 L 134.089844 547.769531 L 617.113281 547.769531 L 617.113281 0 Z M 134.089844 0 " fill-rule="nonzero"/></g></g></svg>