<svg width="800" height="800" viewBox="0 0 800 800" fill="none" xmlns="http://www.w3.org/2000/svg">
<g clip-path="url(#clip0_34_2)">
<rect width="800" height="800" rx="50" fill="white"/>
<rect width="800" height="800" rx="50" fill="#09090B"/>
<g clip-path="url(#clip1_34_2)">
<path opacity="0.992157" d="M342.5 207H372.5L373.5 208H380.5L397.5 211L416.5 216L455.5 230C471.567 236.933 486.233 245.267 499.5 255L528 282.5C541.867 298.633 552.867 317.633 561 339.5L568 363.5L571.5 394L575 380.5L576 350.5L575 349.5V337.5L574 336.5L573 323.5L567 299.5L560 281.5L550 263.5L557 269.5C572.067 286.767 583.4 307.767 591 332.5L598 365.5L599 401.5L598 402.5V411.5L597 412.5L596 424.5L585 460.5C575.8 482.967 563.3 502.133 547.5 518C519.033 509.133 496.2 494.633 479 474.5L475 467.5C485.4 457.567 493.4 445.233 499 430.5L505 408.5C504 404.833 504.333 402.5 506 401.5V381.5L502 360.5L492 337.5C485.133 325.7 476.633 315.533 466.5 307C455.3 297.533 441.633 290.533 425.5 286L414.5 284H406.5L405.5 283H393.5L392.5 284L378.5 285L356.5 292C341.767 298.6 329.6 307.767 320 319.5C309.6 331.1 301.933 345.433 297 362.5L294 378.5V403.5L297 419.5L301 431.5C307.333 446.167 315.833 458.667 326.5 469L347.5 485L369.5 495L385.5 498L395 507.5L416.5 530C434.967 546.2 456.633 559.2 481.5 569L500.5 575L521.5 579L550.5 580L556 578.5C535.533 568.633 518.2 555.633 504 539.5L490 521.5L491.5 522L513.5 533L543.5 543L566.5 547L592.5 548L593.5 547H606.5L624 544C621.2 554.6 617.2 564.433 612 573.5C608.267 580.767 603.433 586.933 597.5 592L586.5 597L574.5 600L544.5 602L543.5 601H528.5L500.5 595L480.5 588L463.5 579H458.5L439.5 585H433.5L425.5 587H417.5L416.5 588H387.5L386.5 587L371.5 586L346.5 580C332.367 575.8 319.367 570.467 307.5 564C285.767 552.4 267.267 537.567 252 519.5C237 502.5 225 482.5 216 459.5L211 444.5L206 421.5L205 406.5L204 405.5V376.5L205 375.5L207 354.5L211 336.5L224 302.5C235.4 279.9 249.9 260.4 267.5 244C279.9 232.067 294.567 222.4 311.5 215L326.5 210L342.5 207Z" fill="white" stroke="white"/>
</g>
</g>
<defs>
<clipPath id="clip0_34_2">
<rect width="800" height="800" rx="50" fill="white"/>
</clipPath>
<clipPath id="clip1_34_2">
<rect width="1024" height="1024" fill="white" transform="translate(-112 -112)"/>
</clipPath>
</defs>
</svg>
